<svg width="408" height="97" viewBox="0 0 408 97" fill="none" xmlns="http://www.w3.org/2000/svg">
<g clip-path="url(#clip0_1_573)">
<g clip-path="url(#clip1_1_573)">
<mask id="mask0_1_573" style="mask-type:luminance" maskUnits="userSpaceOnUse" x="0" y="0" width="408" height="96">
<path d="M408 0.541992H0V95.7144H408V0.541992Z" fill="white"/>
</mask>
<g mask="url(#mask0_1_573)">
<path d="M0.650818 3.71191H9.95848V28.0953H14.5232V3.71191H29.0508V67.871H14.5232V41.175H9.95848V67.871H0.650818V3.71191Z" fill="white"/>
<path d="M84.8036 35.7496C84.8036 56.4135 77.6709 69.3833 56.9114 69.3833C38.042 69.3833 30.9943 56.6377 30.9943 35.6045C30.9943 15.8639 38.042 2.8457 57.7941 2.8457C77.5461 2.8457 84.8036 16.0969 84.8036 35.7539V35.7496ZM50.684 35.4814C50.684 50.2758 51.5533 54.5581 55.8237 54.5581C60.0942 54.5581 61.4761 50.4429 61.4761 35.3231C61.4761 21.3156 60.1432 17.7149 55.7747 17.7149C51.7717 17.7149 50.6795 21.219 50.6795 35.477L50.684 35.4814Z" fill="white"/>
<path d="M100.588 20.3612H84.2325V3.71582H145.655V20.3612H127.151V67.8749H100.588V20.3612Z" fill="white"/>
<path d="M173.075 48.192C173.712 50.8958 175.344 53.9735 180.242 53.9735C183.965 53.9735 185.962 52.483 185.962 50.2407C185.962 47.9985 185.325 46.2267 174.889 44.2702C149.841 39.6055 147.39 30.1881 147.39 21.795C147.39 9.67369 157.914 0.533203 179.249 0.533203C198.76 0.533203 212.253 7.71719 213.252 20.8585H186.416C185.873 18.0579 184.419 15.9168 180.153 15.9168C177.069 15.9168 175.526 17.1302 175.526 18.9988C175.526 21.2366 178.25 22.3534 185.333 23.6635C208.75 27.8622 215.009 36.0662 215.009 46.4202C215.009 60.6914 202.121 69.5461 180.791 69.5461C157.558 69.5461 146.422 60.2209 144.519 48.192H173.079H173.075Z" fill="white"/>
<path d="M240.146 57.521L238.331 67.8749H212.396L230.459 3.71582H266.432L282.574 67.8749H256.96L255.007 57.521H240.132H240.137H240.146ZM251.535 40.2689C250.657 35.2744 248.49 25.6283 247.407 18.541H247.723C246.631 25.9097 244.96 33.863 243.756 40.2689H251.544H251.539H251.535Z" fill="white"/>
<path d="M304.711 3.71191V49.1768C304.711 52.6852 308.049 54.5449 311.076 54.5449C313.903 54.5449 317.259 52.7819 317.259 49.1768V3.71191H338.99V46.5872C338.99 63.3908 325.346 69.6956 310.02 69.6956C294.694 69.6956 280.728 62.8676 280.728 46.4509V3.71191H304.711Z" fill="white"/>
<path d="M383.737 45.7956V46.5034C383.737 58.9061 379.845 69.6997 364.604 69.6997C350.874 69.6997 341.968 61.9969 341.968 38.295V34.1579C341.968 9.72177 352.974 2.10254 365.023 2.10254C379.956 2.10254 383.737 13.9557 383.737 24.8679V25.6945H366.348V24.6437C366.348 19.0865 365.554 16.9585 364.198 16.9585C363.094 16.9585 361.342 19.2052 361.342 33.5951V38.2423C361.342 53.3884 362.853 55.4284 364.172 55.4284C365.625 55.4284 366.423 53.0675 366.423 46.9123V45.7956H383.741H383.737Z" fill="white"/>
<path d="M405.731 39.2406H397.818V55.6529H408L406.369 67.871H386.304V3.71191H406.279V15.9299H397.818V27.0313H405.731V39.2493V39.2406Z" fill="white"/>
<path d="M151.223 91.4681V78.1904H153.314V83.4223C153.973 82.4507 154.963 81.9759 156.278 81.967C157.401 81.967 158.271 82.2968 158.882 82.9522C159.497 83.6068 159.804 84.5213 159.804 85.6907V91.4639H157.713V85.977C157.713 84.4601 157.027 83.7036 155.663 83.7036C154.976 83.7036 154.415 83.9105 153.978 84.3103C153.541 84.7191 153.318 85.2951 153.318 86.0341V91.459H151.227L151.218 91.4722L151.223 91.4681Z" fill="white"/>
<path d="M169.687 90.3292C168.76 91.2437 167.587 91.7005 166.183 91.7005C164.779 91.7005 163.606 91.2437 162.666 90.3292C161.73 89.4147 161.262 88.2453 161.262 86.8334C161.262 85.4224 161.734 84.2572 162.666 83.3518C163.602 82.4416 164.77 81.9844 166.183 81.9844C167.596 81.9844 168.76 82.4416 169.687 83.3518C170.614 84.2621 171.078 85.4224 171.078 86.8334C171.078 88.2453 170.614 89.4147 169.687 90.3292ZM164.195 89.1598C164.695 89.7358 165.349 90.0213 166.183 90.0213C167.017 90.0213 167.672 89.7358 168.171 89.1598C168.67 88.5838 168.92 87.805 168.92 86.8293C168.92 85.8536 168.67 85.093 168.167 84.5212C167.663 83.9452 167.004 83.6597 166.192 83.6597C165.381 83.6597 164.703 83.941 164.204 84.5079C163.705 85.0748 163.455 85.8486 163.455 86.8293C163.455 87.81 163.705 88.5838 164.204 89.1598H164.195Z" fill="white"/>
<path d="M175.923 91.6999C173.998 91.6999 173.034 90.6845 173.034 88.6486V83.9487H171.581V82.2078H173.092L173.579 79.4775H175.152V82.2078H178.892V83.9487H175.152V88.5915C175.152 89.4447 175.468 89.8709 176.101 89.8709C176.699 89.8709 177.229 89.3388 177.706 88.2663L179.333 89.0839C178.531 90.8252 177.394 91.6999 175.927 91.6999H175.923Z" fill="white"/>
<path d="M180.002 95.7095C179.075 95.7095 178.303 95.4596 177.698 94.9448L178.473 93.3178C178.847 93.749 179.258 93.9691 179.69 93.9691C180.274 93.9691 180.564 93.5992 180.564 92.8609V82.2035H182.654V92.9007C182.654 93.8896 182.405 94.6063 181.905 95.0499C181.406 95.4852 180.769 95.7054 180.002 95.7145V95.7054V95.7095ZM181.606 80.6427C181.259 80.656 180.929 80.5328 180.679 80.2999C180.564 80.1899 180.466 80.0536 180.403 79.8953C180.341 79.7459 180.305 79.5832 180.314 79.4161C180.314 79.2534 180.341 79.0864 180.403 78.9325C180.466 78.783 180.564 78.6379 180.679 78.528C180.934 78.3038 181.264 78.1719 181.606 78.1719C181.95 78.1719 182.28 78.295 182.534 78.528C182.659 78.6423 182.757 78.7786 182.82 78.9325C182.882 79.0864 182.917 79.2534 182.908 79.4161C182.908 79.5788 182.882 79.7459 182.81 79.8866C182.739 80.0272 182.65 80.1723 182.525 80.2822C182.4 80.3965 182.262 80.4889 182.101 80.5504C181.941 80.6119 181.776 80.6383 181.602 80.6383L181.606 80.6427Z" fill="white"/>
<path d="M187.847 91.7001C186.773 91.7001 185.908 91.432 185.244 90.909C184.58 90.381 184.246 89.6734 184.246 88.7763C184.246 87.9636 184.593 87.2726 185.284 86.7057C185.975 86.1388 186.844 85.8574 187.888 85.8574C188.93 85.8574 189.862 86.1917 190.602 86.8687V85.7432C190.602 85.0786 190.428 84.5688 190.09 84.2039C189.751 83.8439 189.261 83.6593 188.628 83.6593C187.348 83.6593 186.554 84.3007 186.247 85.5843L184.331 85.1804C184.585 84.1906 185.097 83.4036 185.859 82.8324C186.622 82.2565 187.571 81.9707 188.708 81.9707C189.947 81.9707 190.923 82.2916 191.646 82.9335C192.358 83.5757 192.72 84.5159 192.72 85.7473V91.4585H190.682V90.2891C189.996 91.2168 189.055 91.6828 187.856 91.6828L187.847 91.696V91.7001ZM188.235 90.1699C189.162 90.1699 189.952 89.7131 190.598 88.7986V88.5131C189.956 87.7476 189.162 87.3652 188.235 87.3652C187.696 87.3652 187.25 87.4968 186.92 87.7567C186.76 87.8709 186.635 88.0248 186.546 88.2003C186.457 88.3766 186.412 88.5702 186.412 88.7589C186.412 88.9484 186.448 89.1503 186.537 89.3258C186.622 89.5021 186.751 89.6601 186.911 89.7793C187.246 90.0383 187.678 90.1699 188.239 90.1699L188.231 90.179L188.235 90.1699Z" fill="white"/>
<path d="M194.743 91.468V82.2042H196.781V83.8087C197.302 82.6395 198.185 82.0547 199.456 82.0547C200.204 82.0547 200.829 82.2921 201.31 82.7801C201.8 83.2641 202.045 83.9146 202.045 84.7281C202.045 85.2114 201.956 85.6997 201.795 86.1615L199.879 85.9678C199.919 85.7171 199.942 85.4622 199.955 85.2023C199.955 84.244 199.553 83.7698 198.756 83.7698C198.216 83.7698 197.757 84.0512 197.392 84.6181C197.026 85.1849 196.839 85.9281 196.839 86.865V91.468H194.748H194.743Z" fill="white"/>
<path d="M138.162 83.6277C139.722 82.7751 141.853 81.6056 141.853 78.1982H139.268C139.268 80.102 138.327 80.6164 136.905 81.4034C135.345 82.2563 133.214 83.4258 133.214 86.8329H135.799C135.799 84.9295 136.74 84.4147 138.162 83.6277Z" fill="#FF3C00"/>
<path d="M142.629 82.8418C142.629 84.7454 141.688 85.2602 140.266 86.0472C138.706 86.8996 136.575 88.069 136.575 91.477H139.16C139.16 89.5727 140.101 89.0588 141.523 88.2718C143.083 87.4185 145.214 86.2491 145.214 82.8418H142.629Z" fill="#FF3C00"/>
<path d="M3.61073 81.6055H6.36559L9.9763 91.4541H7.73857L7.09666 89.6119H2.87968L2.23777 91.4541H0L3.61073 81.6055ZM6.54836 88.0461L5.05058 83.755H4.9213L3.42352 88.0461H6.54836Z" fill="white"/>
<path d="M14.0239 86.5299C14.0239 83.3511 15.8516 81.4785 18.7446 81.4785C20.9289 81.4785 22.6807 82.5777 22.8813 85.022H20.7996C20.5143 83.7996 19.703 83.2899 18.6733 83.2899C16.9348 83.2899 16.2037 84.71 16.2037 86.5257C16.2037 88.3414 16.9169 89.7748 18.6733 89.7748C19.6985 89.7748 20.5143 89.2692 20.7996 88.0294H22.8813C22.6807 90.4915 20.9289 91.5905 18.7178 91.5905C15.8516 91.5905 14.0239 89.7177 14.0239 86.5257V86.5299Z" fill="white"/>
<path d="M23.7596 86.5299C23.7596 83.505 25.6407 81.4785 28.5248 81.4785C31.409 81.4785 33.2901 83.505 33.2901 86.5299C33.2901 89.5547 31.409 91.5947 28.5248 91.5947C25.6407 91.5947 23.7596 89.5414 23.7596 86.5299ZM28.5248 89.779C30.1653 89.779 31.0925 88.4863 31.0925 86.5299C31.0925 84.5734 30.1653 83.294 28.5248 83.294C26.8844 83.294 25.9572 84.5602 25.9572 86.5299C25.9572 88.4995 26.8844 89.779 28.5248 89.779Z" fill="white"/>
<path d="M34.6363 81.6055H36.8607L40.8816 88.0775H40.9261V81.6055H43.0658V91.4541H40.7567L36.8206 85.1098H36.776V91.4541H34.6363V81.6055Z" fill="white"/>
<path d="M44.782 81.6055H51.3839V83.4348H46.9173V85.7429H50.6127V87.4444H46.9173V91.4541H44.7776V81.6055H44.782Z" fill="white"/>
<path d="M52.4092 81.606H59.225V83.4352H54.5444V85.6416H58.797V87.286H54.5444V89.6206H59.3677V91.4496H52.4092V81.6016V81.606Z" fill="white"/>
<path d="M60.7361 81.6055H64.7748C67.4272 81.6055 68.5817 82.9688 68.5817 84.8988C68.5817 86.2924 67.9666 87.4179 66.5847 87.9104L68.6798 91.4541H66.5668L64.6678 88.1744H62.8714V91.4541H60.7318V81.6055H60.7361ZM64.7035 86.3454C65.8715 86.3454 66.3885 85.7694 66.3885 84.8938C66.3885 84.019 65.8759 83.4298 64.7035 83.4298H62.8759V86.3404H64.7035V86.3454Z" fill="white"/>
<path d="M69.9324 81.606H76.7482V83.4352H72.0676V85.6416H76.3203V87.286H72.0676V89.6206H76.8909V91.4496H69.9324V81.6016V81.606Z" fill="white"/>
<path d="M78.2639 81.6055H80.4883L84.509 88.0775H84.5537V81.6055H86.6938V91.4541H84.384L80.4482 85.1098H80.4036V91.4541H78.2639V81.6055Z" fill="white"/>
<path d="M88.0668 86.5299C88.0668 83.3511 89.8941 81.4785 92.7873 81.4785C94.9713 81.4785 96.7233 82.5777 96.9236 85.022H94.8422C94.5567 83.7996 93.7457 83.2899 92.7161 83.2899C90.9774 83.2899 90.2458 84.71 90.2458 86.5257C90.2458 88.3414 90.9592 89.7748 92.7161 89.7748C93.7407 89.7748 94.5567 89.2692 94.8422 88.0294H96.9236C96.7233 90.4915 94.9713 91.5905 92.76 91.5905C89.8941 91.5905 88.0668 89.7177 88.0668 86.5257V86.5299Z" fill="white"/>
<path d="M98.2213 81.606H105.036V83.4352H100.356V85.6416H104.609V87.286H100.356V89.6206H105.18V91.4496H98.2213V81.6016V81.606Z" fill="white"/>
<path d="M110.163 81.6055H114.215C116.44 81.6055 117.452 82.5771 117.452 84.0679C117.452 85.1363 116.952 85.7429 116.012 86.0375C117.496 86.4331 118.138 87.3476 118.138 88.5699C118.138 90.1614 117.023 91.4541 114.385 91.4541H110.163V81.6055ZM114.131 85.6022C114.772 85.6022 115.316 85.2637 115.316 84.4635C115.316 83.6632 114.772 83.3818 114.131 83.3818H112.303V85.6063H114.131V85.6022ZM114.318 89.6822C115.517 89.6822 115.932 89.0491 115.932 88.3324C115.932 87.6157 115.517 86.9388 114.318 86.9388H112.308V89.6822H114.318Z" fill="white"/>
<path d="M121.745 87.835L118.134 81.6055H120.559L122.841 85.8L125.137 81.6055H127.562L123.951 87.835V91.4491H121.74V87.835H121.745Z" fill="white"/>
</g>
</g>
</g>
<defs>
<clipPath id="clip0_1_573">
<rect width="408" height="96" fill="white" transform="translate(0 0.110352)"/>
</clipPath>
<clipPath id="clip1_1_573">
<rect width="408" height="96" fill="white" transform="translate(0 0.110352)"/>
</clipPath>
</defs>
</svg>
