<svg width="624" height="255" viewBox="0 0 624 255" fill="none" xmlns="http://www.w3.org/2000/svg">
<g clip-path="url(#clip0_1_318)">
<g clip-path="url(#clip1_1_318)">
<g clip-path="url(#clip2_1_318)">
<mask id="mask0_1_318" style="mask-type:luminance" maskUnits="userSpaceOnUse" x="0" y="0" width="624" height="255">
<path d="M623.996 0.209961H0.00396729V254.32H623.996V0.209961Z" fill="white"/>
</mask>
<g mask="url(#mask0_1_318)">
<path d="M623.996 0.209961H0.00396729V254.32H623.996V0.209961Z" fill="#EAEAEA"/>
<path d="M500.65 103.025C516.507 103.025 537.097 102.85 553.244 90.2591V244.278V247.222H556.187H618.081H621.024V244.278V10.0852V7.14192H618.081H556.187H554.081L553.402 9.13415C548.882 22.3701 542.54 30.7226 534.08 36.271C525.525 41.8829 514.516 44.8227 500.276 46.644L497.706 46.9727V49.5635V100.082V103.025H500.65ZM284.358 127.182C284.358 174.917 297.914 205.872 317.318 224.885C336.69 243.868 361.507 250.567 383.321 250.567C405.623 250.567 430.531 243.875 449.87 224.883C469.235 205.864 482.618 174.906 482.618 127.182C482.618 79.7865 469.232 48.9141 449.87 29.899C430.536 10.9119 405.631 4.13086 383.321 4.13086C361.499 4.13086 336.685 10.9186 317.318 29.8968C297.917 48.9064 284.358 79.7753 284.358 127.182ZM383.321 193.158C375.839 193.158 370.129 190.959 365.688 187.334C361.197 183.67 357.82 178.396 355.325 171.99C350.31 159.11 349.128 142.351 349.128 127.182C349.128 112.183 350.309 95.5074 355.324 82.6688C357.818 76.284 361.196 71.0206 365.687 67.3605C370.129 63.7396 375.839 61.5402 383.321 61.5402C390.894 61.5402 396.67 63.7444 401.158 67.3689C405.694 71.0311 409.099 76.2946 411.612 82.6762C416.666 95.5108 417.848 112.182 417.848 127.182C417.848 142.351 416.666 159.106 411.611 171.983C409.098 178.386 405.692 183.659 401.157 187.325C396.669 190.954 390.894 193.158 383.321 193.158Z" stroke="white" stroke-width="5.88672"/>
</g>
</g>
</g>
</g>
<defs>
<clipPath id="clip0_1_318">
<rect width="624" height="254.11" fill="white" transform="translate(0 0.209961)"/>
</clipPath>
<clipPath id="clip1_1_318">
<rect width="624" height="254.11" fill="white" transform="translate(0 0.209961)"/>
</clipPath>
<clipPath id="clip2_1_318">
<rect width="623.992" height="254.11" fill="white" transform="translate(0.00396729 0.209961)"/>
</clipPath>
</defs>
</svg>
