<svg width="624" height="255" viewBox="0 0 624 255" fill="none" xmlns="http://www.w3.org/2000/svg">
<g clip-path="url(#clip0_1_333)">
<g clip-path="url(#clip1_1_333)">
<g clip-path="url(#clip2_1_333)">
<mask id="mask0_1_333" style="mask-type:luminance" maskUnits="userSpaceOnUse" x="0" y="0" width="624" height="255">
<path d="M623.996 0.319824H0.00393677V254.43H623.996V0.319824Z" fill="white"/>
</mask>
<g mask="url(#mask0_1_333)">
<path d="M623.996 0.319824H0.00393677V254.43H623.996V0.319824Z" fill="#EAEAEA"/>
<path d="M502.582 124.727L502.569 124.734L502.556 124.741C476.946 139.327 461.648 154.845 452.829 172.442C444.032 189.99 441.852 209.273 441.852 231.012V243.057V246H444.796H616.76H619.704V243.057V192.203V189.26H616.76H519.358C520.029 186.85 521.781 183.959 525.737 180.202C531.276 174.942 540.793 168.317 556.616 159.321C557.575 158.815 558.562 158.298 559.574 157.768C583.665 145.147 621.711 125.215 621.711 76.1101C621.711 54.4991 614.339 36.066 599.413 23.0781C584.539 10.1348 562.522 2.90869 533.789 2.90869C501.439 2.90869 479.157 12.2032 464.988 27.2088C450.852 42.1785 445.198 62.4019 445.198 83.4704V90.8308V93.7741H448.141H508.028H510.971V90.8308V86.1469C510.971 75.5203 514.045 69.3986 517.977 65.8839C521.974 62.3112 527.353 60.9871 532.785 60.9871C536.782 60.9871 542.36 61.2695 546.777 63.7473C548.916 64.947 550.763 66.6536 552.049 69.1363C553.344 71.6366 554.166 75.1117 553.934 79.9848L553.932 80.0128L553.931 80.0407C553.632 90.5219 548.517 97.4639 539.512 103.958C534.956 107.244 529.479 110.356 523.211 113.709C521.142 114.816 518.981 115.952 516.746 117.127C512.274 119.478 507.504 121.986 502.582 124.727ZM224.863 125.96C224.863 173.694 238.419 204.65 257.823 223.663C277.195 242.646 302.012 249.346 323.825 249.346C346.129 249.346 371.036 242.652 390.375 223.661C409.74 204.642 423.123 173.684 423.123 125.96C423.123 78.5643 409.737 47.692 390.375 28.6768C371.041 9.68976 346.137 2.90869 323.825 2.90869C302.004 2.90869 277.191 9.69647 257.823 28.6746C238.422 47.6843 224.863 78.5532 224.863 125.96ZM323.825 191.936C316.343 191.936 310.635 189.737 306.193 186.112C301.703 182.447 298.325 177.175 295.83 170.769C290.815 157.888 289.632 141.128 289.632 125.96C289.632 110.961 290.814 94.2852 295.829 81.4467C298.323 75.0618 301.701 69.7984 306.192 66.1383C310.634 62.5174 316.343 60.318 323.825 60.318C331.399 60.318 337.175 62.5223 341.663 66.1468C346.199 69.8089 349.604 75.0724 352.117 81.454C357.171 94.2886 358.353 110.96 358.353 125.96C358.353 141.129 357.171 157.884 352.116 170.761C349.603 177.164 346.197 182.437 341.662 186.104C337.174 189.732 331.399 191.936 323.825 191.936Z" stroke="white" stroke-width="5.88672"/>
</g>
</g>
</g>
</g>
<defs>
<clipPath id="clip0_1_333">
<rect width="624" height="254.11" fill="white" transform="translate(0 0.319824)"/>
</clipPath>
<clipPath id="clip1_1_333">
<rect width="624" height="254.11" fill="white" transform="translate(0 0.319824)"/>
</clipPath>
<clipPath id="clip2_1_333">
<rect width="623.992" height="254.11" fill="white" transform="translate(0.00393677 0.319824)"/>
</clipPath>
</defs>
</svg>
