<svg width="624" height="255" viewBox="0 0 624 255" fill="none" xmlns="http://www.w3.org/2000/svg">
<g clip-path="url(#clip0_1_347)">
<g clip-path="url(#clip1_1_347)">
<mask id="mask0_1_347" style="mask-type:luminance" maskUnits="userSpaceOnUse" x="0" y="0" width="624" height="255">
<path d="M623.996 0.430176H0.00396729V254.54H623.996V0.430176Z" fill="white"/>
</mask>
<g mask="url(#mask0_1_347)">
<path d="M623.996 0.430176H0.00396729V254.54H623.996V0.430176Z" fill="#EAEAEA"/>
<path d="M432.621 159.149H429.697L429.677 162.073C429.508 188.128 435.977 210.395 451.072 226.148C466.186 241.921 489.487 250.683 521.949 250.683C552.542 250.683 577.077 242.78 594.032 229.391C611.035 215.962 620.242 197.134 620.242 175.809C620.242 153.812 611.203 139.447 600.567 130.635C594.771 125.833 588.503 122.684 583 120.825C596.478 114.172 612.213 98.7854 612.213 70.4221C612.213 50.0819 603.49 33.4074 588.206 21.9012C573.003 10.4556 551.495 4.24658 525.964 4.24658C496.318 4.24658 474.057 12.5199 459.216 27.5366C444.384 42.5446 437.372 63.8737 437.372 89.1576V92.101H440.316H497.86H500.722L500.803 89.2405C501.119 78.0391 504.862 71.5469 509.396 67.7976C514.022 63.9735 519.887 62.6595 524.96 62.6595C529.928 62.6595 535.377 63.8356 539.495 66.7257C543.464 69.5101 546.44 74.04 546.44 81.4627C546.44 84.744 546.233 89.286 542.966 93.0969C539.743 96.8564 532.903 100.6 517.934 100.6H504.552H501.608V103.544V147.037V149.98H504.552H520.611C534.125 149.98 541.8 153 546.097 156.942C550.338 160.832 551.793 166.09 551.793 171.794C551.793 180.235 548.038 185.335 542.877 188.475C537.53 191.728 530.522 192.94 524.291 192.94C517.681 192.94 510.145 191.795 504.277 187.523C498.577 183.375 493.937 175.895 493.778 162.058L493.745 159.149H490.835H432.621ZM216.368 127.298C216.368 175.032 229.924 205.988 249.328 225.001C268.7 243.983 293.518 250.683 315.331 250.683C337.635 250.683 362.541 243.99 381.88 224.999C401.246 205.981 414.628 175.021 414.628 127.298C414.628 79.9022 401.243 49.0299 381.88 30.0148C362.546 11.0276 337.643 4.24658 315.331 4.24658C293.51 4.24658 268.696 11.0344 249.328 30.0125C229.927 49.0221 216.368 79.8911 216.368 127.298ZM315.331 193.274C307.849 193.274 302.141 191.074 297.698 187.449C293.209 183.785 289.831 178.512 287.336 172.106C282.32 159.225 281.138 142.466 281.138 127.298C281.138 112.298 282.32 95.6231 287.335 82.7845C289.829 76.3998 293.207 71.1363 297.697 67.4761C302.14 63.8554 307.849 61.6558 315.331 61.6558C322.904 61.6558 328.68 63.8602 333.169 67.4847C337.704 71.1468 341.11 76.4104 343.623 82.792C348.676 95.6265 349.859 112.297 349.859 127.298C349.859 142.467 348.676 159.222 343.622 172.099C341.109 178.501 337.702 183.775 333.168 187.441C328.679 191.07 322.904 193.274 315.331 193.274Z" stroke="white" stroke-width="5.88672"/>
</g>
</g>
</g>
<defs>
<clipPath id="clip0_1_347">
<rect width="624" height="254.11" fill="white" transform="translate(0 0.430176)"/>
</clipPath>
<clipPath id="clip1_1_347">
<rect width="623.992" height="254.11" fill="white" transform="translate(0.00396729 0.430176)"/>
</clipPath>
</defs>
</svg>
