<svg width="709" height="232" viewBox="0 0 709 232" fill="none" xmlns="http://www.w3.org/2000/svg">
<path d="M17.2619 6.83847H26.954V31.6701C26.9422 34.0282 26.3467 36.1034 25.1676 37.8957C24.0003 39.6761 22.385 41.0674 20.3216 42.0696C18.27 43.0601 15.9059 43.5553 13.2294 43.5553C10.9066 43.5553 8.78421 43.1544 6.86229 42.3526C4.94038 41.539 3.40757 40.2656 2.26385 38.5324C1.12013 36.7873 0.554172 34.5235 0.565962 31.7408H10.3996C10.4349 32.6487 10.5882 33.4151 10.8594 34.04C11.1424 34.665 11.5315 35.1366 12.0267 35.4549C12.5337 35.7615 13.1468 35.9148 13.8661 35.9148C14.5971 35.9148 15.2102 35.7556 15.7055 35.4373C16.2125 35.1189 16.5957 34.6473 16.8551 34.0223C17.1145 33.3856 17.2501 32.6015 17.2619 31.6701V6.83847ZM66.704 24.9493C66.704 28.9817 65.9199 32.3834 64.3517 35.1543C62.7835 37.9133 60.667 40.0062 58.0023 41.4329C55.3376 42.8478 52.3663 43.5553 49.0884 43.5553C45.7869 43.5553 42.8039 42.8419 40.1391 41.4152C37.4862 39.9767 35.3756 37.878 33.8074 35.1189C32.251 32.348 31.4728 28.9582 31.4728 24.9493C31.4728 20.9168 32.251 17.521 33.8074 14.7619C35.3756 11.9911 37.4862 9.8982 40.1391 8.48329C42.8039 7.0566 45.7869 6.34325 49.0884 6.34325C52.3663 6.34325 55.3376 7.0566 58.0023 8.48329C60.667 9.8982 62.7835 11.9911 64.3517 14.7619C65.9199 17.521 66.704 20.9168 66.704 24.9493ZM56.5874 24.9493C56.5874 22.7797 56.2985 20.9522 55.7208 19.4665C55.1548 17.9691 54.3118 16.8371 53.1916 16.0707C52.0833 15.2925 50.7155 14.9034 49.0884 14.9034C47.4612 14.9034 46.0876 15.2925 44.9675 16.0707C43.8591 16.8371 43.0161 17.9691 42.4383 19.4665C41.8724 20.9522 41.5894 22.7797 41.5894 24.9493C41.5894 27.1188 41.8724 28.9523 42.4383 30.4497C43.0161 31.9354 43.8591 33.0673 44.9675 33.8455C46.0876 34.6119 47.4612 34.9951 49.0884 34.9951C50.7155 34.9951 52.0833 34.6119 53.1916 33.8455C54.3118 33.0673 55.1548 31.9354 55.7208 30.4497C56.2985 28.9523 56.5874 27.1188 56.5874 24.9493ZM81.0874 6.83847V43.0601H71.2538V6.83847H81.0874ZM117.088 6.83847V43.0601H108.881L95.7936 24.0296H95.5813V43.0601H85.7477V6.83847H94.0957L106.971 25.7982H107.254V6.83847H117.088ZM153.097 6.83847H162.931V30.0429C162.931 32.802 162.271 35.1896 160.95 37.2059C159.641 39.2103 157.814 40.7608 155.467 41.8574C153.121 42.9421 150.397 43.4845 147.296 43.4845C144.172 43.4845 141.436 42.9421 139.09 41.8574C136.743 40.7608 134.916 39.2103 133.607 37.2059C132.31 35.1896 131.661 32.802 131.661 30.0429V6.83847H141.495V29.194C141.495 30.3141 141.743 31.3163 142.238 32.2007C142.733 33.0732 143.417 33.7571 144.289 34.2523C145.174 34.7475 146.176 34.9951 147.296 34.9951C148.428 34.9951 149.43 34.7475 150.303 34.2523C151.175 33.7571 151.859 33.0732 152.354 32.2007C152.85 31.3163 153.097 30.3141 153.097 29.194V6.83847ZM187.13 18.1577C187.036 16.9786 186.594 16.0589 185.804 15.3986C185.025 14.7384 183.84 14.4082 182.249 14.4082C181.235 14.4082 180.403 14.532 179.755 14.7796C179.118 15.0154 178.647 15.3397 178.34 15.7524C178.033 16.1651 177.874 16.6367 177.863 17.1673C177.839 17.6035 177.916 17.9985 178.092 18.3523C178.281 18.6942 178.576 19.0067 178.977 19.2896C179.378 19.5608 179.891 19.8084 180.515 20.0325C181.14 20.2565 181.883 20.4569 182.744 20.6338L185.715 21.2705C187.72 21.695 189.435 22.255 190.862 22.9507C192.289 23.6464 193.456 24.4658 194.364 25.4091C195.272 26.3406 195.938 27.39 196.362 28.5573C196.799 29.7246 197.023 30.998 197.034 32.3775C197.023 34.7593 196.427 36.7755 195.248 38.4262C194.069 40.077 192.383 41.3327 190.19 42.1934C188.009 43.0542 185.385 43.4845 182.319 43.4845C179.171 43.4845 176.424 43.0188 174.078 42.0873C171.743 41.1558 169.927 39.7232 168.63 37.7895C167.345 35.844 166.697 33.3562 166.685 30.3259H176.023C176.082 31.4342 176.359 32.3657 176.854 33.1203C177.35 33.875 178.045 34.4468 178.941 34.8359C179.849 35.225 180.928 35.4196 182.178 35.4196C183.227 35.4196 184.106 35.2899 184.813 35.0305C185.521 34.7711 186.057 34.4114 186.423 33.9516C186.788 33.4918 186.977 32.9671 186.989 32.3775C186.977 31.8233 186.794 31.3399 186.44 30.9272C186.098 30.5028 185.532 30.1255 184.742 29.7953C183.953 29.4534 182.885 29.135 181.541 28.8403L177.933 28.0621C174.726 27.3664 172.197 26.205 170.346 24.5779C168.506 22.9389 167.593 20.7045 167.604 17.8747C167.593 15.5755 168.206 13.5652 169.444 11.8437C170.694 10.1104 172.421 8.76038 174.626 7.79353C176.843 6.82668 179.384 6.34325 182.249 6.34325C185.173 6.34325 187.702 6.83257 189.836 7.81121C191.97 8.78986 193.615 10.1694 194.771 11.9498C195.938 13.7184 196.527 15.7877 196.539 18.1577H187.13ZM220.106 43.0601H209.495L221.45 6.83847H234.892L246.848 43.0601H236.236L228.313 16.8136H228.03L220.106 43.0601ZM218.125 28.7695H238.076V36.127H218.125V28.7695ZM244.774 14.7619V6.83847H276.256V14.7619H265.361V43.0601H255.669V14.7619H244.774Z" fill="#212529"/>
<g clip-path="url(#clip0_2055_2)">
<g clip-path="url(#clip1_2055_2)">
<g clip-path="url(#clip2_2055_2)">
<mask id="mask0_2055_2" style="mask-type:luminance" maskUnits="userSpaceOnUse" x="0" y="58" width="709" height="174">
<path d="M708.636 58.5808H0.0234985V231.455H708.636V58.5808Z" fill="white"/>
</mask>
<g mask="url(#mask0_2055_2)">
<path d="M1.15387 64.3389H17.3194V108.63H25.2473V64.3389H50.4789V180.88H25.2473V132.388H17.3194V180.88H1.15387V64.3389Z" fill="#323232"/>
<path d="M147.31 122.533C147.31 160.068 134.922 183.627 98.8673 183.627C66.0948 183.627 53.8545 160.475 53.8545 122.27C53.8545 86.4124 66.0948 62.7656 100.4 62.7656C134.705 62.7656 147.31 86.8356 147.31 122.541V122.533ZM88.0516 122.046C88.0516 148.919 89.5612 156.698 96.9777 156.698C104.395 156.698 106.795 149.222 106.795 121.759C106.795 96.3151 104.481 89.7745 96.893 89.7745C89.9404 89.7745 88.0439 96.1394 88.0439 122.038L88.0516 122.046Z" fill="#323232"/>
<path d="M174.725 94.5822H146.319V64.3469H252.997V94.5822H220.86V180.887H174.725V94.5822Z" fill="#323232"/>
<path d="M300.619 145.134C301.726 150.046 304.559 155.636 313.069 155.636C319.533 155.636 323.001 152.928 323.001 148.855C323.001 144.782 321.895 141.564 303.77 138.01C260.267 129.537 256.009 112.431 256.009 97.1855C256.009 75.1679 274.288 58.5649 311.342 58.5649C345.229 58.5649 368.665 71.6142 370.399 95.4845H323.791C322.846 90.3974 320.323 86.5082 312.914 86.5082C307.556 86.5082 304.877 88.7123 304.877 92.1064C304.877 96.1713 309.608 98.1998 321.91 100.58C362.579 108.206 373.449 123.108 373.449 141.915C373.449 167.838 351.067 183.922 314.02 183.922C273.669 183.922 254.329 166.984 251.023 145.134H300.627H300.619Z" fill="#323232"/>
<path d="M417.107 162.08L413.956 180.887H368.912L400.284 64.3469H462.762L490.796 180.887H446.31L442.919 162.08H417.083H417.092H417.107ZM436.888 130.743C435.363 121.671 431.6 104.149 429.719 91.2759H430.269C428.372 104.661 425.469 119.107 423.378 130.743H436.904H436.896H436.888Z" fill="#323232"/>
<path d="M529.244 64.3389V146.923C529.244 153.296 535.043 156.674 540.3 156.674C545.208 156.674 551.038 153.471 551.038 146.923V64.3389H588.781V142.219C588.781 172.742 565.082 184.193 538.465 184.193C511.847 184.193 487.591 171.791 487.591 141.971V64.3389H529.244Z" fill="#323232"/>
<path d="M666.496 140.781V142.067C666.496 164.596 659.737 184.202 633.267 184.202C609.421 184.202 593.952 170.21 593.952 127.157V119.642C593.952 75.2558 613.068 61.416 633.995 61.416C659.93 61.416 666.496 82.9464 666.496 102.768V104.269H636.294V102.361C636.294 92.2661 634.916 88.4009 632.562 88.4009C630.642 88.4009 627.6 92.4818 627.6 118.62V127.061C627.6 154.574 630.224 158.278 632.516 158.278C635.04 158.278 636.426 153.99 636.426 142.81V140.781H666.504H666.496Z" fill="#323232"/>
<path d="M704.696 128.874H690.954V158.686H708.637L705.803 180.88H670.956V64.3389H705.648V86.5321H690.954V106.697H704.696V128.89V128.874Z" fill="#323232"/>
<path d="M262.667 223.74V199.623H266.299V209.126C267.444 207.361 269.163 206.498 271.447 206.483C273.397 206.483 274.907 207.082 275.968 208.272C277.036 209.461 277.57 211.122 277.57 213.246V223.733H273.94V213.766C273.94 211.011 272.747 209.638 270.378 209.638C269.186 209.638 268.21 210.012 267.452 210.739C266.693 211.482 266.306 212.528 266.306 213.87V223.724H262.675L262.66 223.748L262.667 223.74Z" fill="#323232"/>
<path d="M294.735 221.672C293.125 223.333 291.089 224.164 288.65 224.164C286.211 224.164 284.175 223.333 282.541 221.672C280.915 220.011 280.103 217.887 280.103 215.324C280.103 212.76 280.923 210.643 282.541 208.998C284.167 207.345 286.195 206.515 288.65 206.515C291.104 206.515 293.125 207.345 294.735 208.998C296.345 210.652 297.151 212.76 297.151 215.324C297.151 217.887 296.345 220.011 294.735 221.672ZM285.197 219.548C286.064 220.594 287.202 221.113 288.65 221.113C290.098 221.113 291.235 220.594 292.103 219.548C292.97 218.502 293.403 217.088 293.403 215.315C293.403 213.543 292.97 212.16 292.095 211.122C291.22 210.077 290.074 209.557 288.665 209.557C287.257 209.557 286.079 210.068 285.212 211.098C284.345 212.129 283.911 213.534 283.911 215.315C283.911 217.096 284.345 218.502 285.212 219.548H285.197Z" fill="#323232"/>
<path d="M305.567 224.164C302.221 224.164 300.549 222.319 300.549 218.622V210.084H298.025V206.922H300.65L301.494 201.963H304.227V206.922H310.723V210.084H304.227V218.517C304.227 220.067 304.777 220.842 305.876 220.842C306.914 220.842 307.835 219.876 308.663 217.927L311.489 219.412C310.096 222.575 308.121 224.164 305.574 224.164H305.567Z" fill="#323232"/>
<path d="M312.65 231.447C311.04 231.447 309.7 230.992 308.648 230.057L309.995 227.103C310.645 227.885 311.357 228.285 312.108 228.285C313.123 228.285 313.626 227.614 313.626 226.272V206.914H317.257V226.344C317.257 228.141 316.823 229.443 315.956 230.249C315.089 231.04 313.982 231.439 312.65 231.455V231.439V231.447ZM315.438 204.079C314.833 204.103 314.261 203.88 313.827 203.456C313.626 203.257 313.456 203.008 313.347 202.721C313.239 202.45 313.177 202.154 313.192 201.851C313.192 201.555 313.239 201.251 313.347 200.972C313.456 200.701 313.626 200.438 313.827 200.237C314.269 199.83 314.841 199.59 315.438 199.59C316.033 199.59 316.607 199.815 317.048 200.237C317.265 200.445 317.435 200.693 317.543 200.972C317.652 201.251 317.714 201.555 317.698 201.851C317.698 202.147 317.652 202.45 317.528 202.705C317.404 202.961 317.249 203.224 317.032 203.424C316.815 203.631 316.576 203.799 316.297 203.911C316.018 204.023 315.732 204.071 315.43 204.071L315.438 204.079Z" fill="#323232"/>
<path d="M326.276 224.164C324.411 224.164 322.909 223.676 321.755 222.726C320.602 221.768 320.02 220.482 320.02 218.853C320.02 217.376 320.625 216.122 321.825 215.092C323.024 214.061 324.534 213.55 326.346 213.55C328.158 213.55 329.776 214.157 331.061 215.387V213.342C331.061 212.137 330.759 211.211 330.17 210.547C329.582 209.893 328.731 209.557 327.631 209.557C325.41 209.557 324.031 210.724 323.497 213.056L320.168 212.321C320.609 210.523 321.499 209.094 322.823 208.056C324.147 207.01 325.796 206.491 327.771 206.491C329.923 206.491 331.618 207.074 332.873 208.24C334.111 209.406 334.739 211.115 334.739 213.351V223.724H331.201V221.6C330.008 223.285 328.375 224.132 326.292 224.132L326.276 224.156V224.164ZM326.95 221.384C328.561 221.384 329.931 220.554 331.054 218.893V218.374C329.938 216.985 328.561 216.29 326.95 216.29C326.013 216.29 325.239 216.529 324.666 217C324.388 217.208 324.17 217.488 324.015 217.807C323.861 218.126 323.783 218.478 323.783 218.821C323.783 219.164 323.845 219.532 324 219.852C324.147 220.171 324.372 220.458 324.65 220.674C325.232 221.145 325.982 221.384 326.958 221.384L326.942 221.401L326.95 221.384Z" fill="#323232"/>
<path d="M338.254 223.74V206.914H341.791V209.829C342.698 207.704 344.231 206.642 346.437 206.642C347.738 206.642 348.821 207.073 349.657 207.96C350.51 208.838 350.935 210.02 350.935 211.498C350.935 212.376 350.78 213.263 350.501 214.101L347.172 213.75C347.242 213.294 347.281 212.831 347.304 212.361C347.304 210.619 346.607 209.757 345.222 209.757C344.284 209.757 343.487 210.268 342.853 211.299C342.218 212.328 341.892 213.678 341.892 215.379V223.74H338.261H338.254Z" fill="#323232"/>
<path d="M239.983 209.502C242.693 207.953 246.393 205.828 246.393 199.639H241.903C241.903 203.097 240.269 204.031 237.799 205.46C235.09 207.01 231.389 209.134 231.389 215.324H235.879C235.879 211.865 237.513 210.931 239.983 209.502Z" fill="#FF3C00"/>
<path d="M247.74 208.072C247.74 211.53 246.106 212.464 243.637 213.894C240.927 215.443 237.227 217.568 237.227 223.757H241.717C241.717 220.298 243.351 219.364 245.821 217.935C248.53 216.386 252.231 214.262 252.231 208.072H247.74Z" fill="#FF3C00"/>
<path d="M6.29461 205.827H11.0792L17.3504 223.716H13.4638L12.3489 220.37H5.02491L3.91004 223.716H0.0234985L6.29461 205.827ZM11.3967 217.527L8.79532 209.733H8.5708L5.96945 217.527H11.3967Z" fill="#323232"/>
<path d="M24.3802 214.772C24.3802 208.998 27.5545 205.596 32.5791 205.596C36.3728 205.596 39.4154 207.593 39.7638 212.033H36.1482C35.6527 209.813 34.2437 208.886 32.4552 208.886C29.4358 208.886 28.1661 211.466 28.1661 214.764C28.1661 218.062 29.4048 220.666 32.4552 220.666C34.2359 220.666 35.6527 219.747 36.1482 217.496H39.7638C39.4154 221.968 36.3728 223.964 32.5327 223.964C27.5545 223.964 24.3802 220.562 24.3802 214.764V214.772Z" fill="#323232"/>
<path d="M41.289 214.772C41.289 209.278 44.5562 205.596 49.5653 205.596C54.5745 205.596 57.8416 209.278 57.8416 214.772C57.8416 220.267 54.5745 223.972 49.5653 223.972C44.5562 223.972 41.289 220.243 41.289 214.772ZM49.5653 220.674C52.4144 220.674 54.0248 218.326 54.0248 214.772C54.0248 211.218 52.4144 208.895 49.5653 208.895C46.7162 208.895 45.1058 211.194 45.1058 214.772C45.1058 218.35 46.7162 220.674 49.5653 220.674Z" fill="#323232"/>
<path d="M60.1798 205.827H64.0431L71.0265 217.583H71.1039V205.827H74.8201V223.716H70.8097L63.9735 212.193H63.896V223.716H60.1798V205.827Z" fill="#323232"/>
<path d="M77.8008 205.827H89.2668V209.15H81.5093V213.342H87.9275V216.433H81.5093V223.716H77.7931V205.827H77.8008Z" fill="#323232"/>
<path d="M91.0477 205.828H102.885V209.15H94.756V213.159H102.142V216.146H94.756V220.387H103.133V223.709H91.0477V205.82V205.828Z" fill="#323232"/>
<path d="M105.51 205.827H112.524C117.131 205.827 119.136 208.303 119.136 211.81C119.136 214.341 118.067 216.386 115.668 217.28L119.307 223.716H115.637L112.339 217.759H109.218V223.716H105.502V205.827H105.51ZM112.4 214.437C114.429 214.437 115.327 213.39 115.327 211.801C115.327 210.212 114.436 209.142 112.4 209.142H109.226V214.429H112.4V214.437Z" fill="#323232"/>
<path d="M121.482 205.828H133.32V209.15H125.19V213.159H132.576V216.146H125.19V220.387H133.567V223.709H121.482V205.82V205.828Z" fill="#323232"/>
<path d="M135.952 205.827H139.815L146.799 217.583H146.876V205.827H150.593V223.716H146.581L139.745 212.193H139.668V223.716H135.952V205.827Z" fill="#323232"/>
<path d="M152.977 214.772C152.977 208.998 156.151 205.596 161.176 205.596C164.969 205.596 168.012 207.593 168.36 212.033H164.745C164.25 209.813 162.84 208.886 161.052 208.886C158.032 208.886 156.763 211.466 156.763 214.764C156.763 218.062 158.001 220.666 161.052 220.666C162.832 220.666 164.25 219.747 164.745 217.496H168.36C168.012 221.968 164.969 223.964 161.129 223.964C156.151 223.964 152.977 220.562 152.977 214.764V214.772Z" fill="#323232"/>
<path d="M170.614 205.828H182.451V209.15H174.322V213.159H181.707V216.146H174.322V220.387H182.698V223.709H170.614V205.82V205.828Z" fill="#323232"/>
<path d="M191.354 205.827H198.392C202.255 205.827 204.012 207.593 204.012 210.3C204.012 212.241 203.146 213.342 201.512 213.878C204.09 214.596 205.205 216.257 205.205 218.478C205.205 221.369 203.27 223.716 198.686 223.716H191.354V205.827ZM198.245 213.087C199.359 213.087 200.304 212.472 200.304 211.019C200.304 209.566 199.359 209.054 198.245 209.054H195.071V213.095H198.245V213.087ZM198.57 220.499C200.653 220.499 201.373 219.348 201.373 218.047C201.373 216.745 200.653 215.515 198.57 215.515H195.079V220.499H198.57Z" fill="#323232"/>
<path d="M211.468 217.144L205.198 205.827H209.409L213.373 213.447L217.361 205.827H221.572L215.301 217.144V223.709H211.461V217.144H211.468Z" fill="#323232"/>
</g>
</g>
</g>
</g>
<defs>
<clipPath id="clip0_2055_2">
<rect width="708.66" height="173.73" fill="white" transform="translate(0 58.0601)"/>
</clipPath>
<clipPath id="clip1_2055_2">
<rect width="708.66" height="173.73" fill="white" transform="translate(0 58.0601)"/>
</clipPath>
<clipPath id="clip2_2055_2">
<rect width="708.613" height="173.73" fill="white" transform="translate(0.0234985 58.0601)"/>
</clipPath>
</defs>
</svg>
