<svg width="340" height="106" viewBox="0 0 340 106" fill="none" xmlns="http://www.w3.org/2000/svg">
<g clip-path="url(#clip0_1_454)">
<path d="M310.301 66.3884C314.663 66.3884 319.082 64.9155 322.311 62.3662C322.368 62.3095 322.368 62.2529 322.311 62.2529L319.139 58.4005C319.082 58.3438 319.026 58.3438 319.026 58.4005C316.363 60.27 313.474 61.2331 310.415 61.2331C305.825 61.2331 303.049 59.0803 302.369 55.058L302.313 54.6047H322.991V53.1884C322.991 45.597 316.872 39.3653 309.395 39.3086C309.338 39.3086 309.281 39.3086 309.224 39.3086C305.145 39.3086 301.52 40.6682 298.971 43.2176C296.534 45.6537 295.175 49.1095 295.175 52.8485C295.232 61.0631 301.123 66.3884 310.301 66.3884ZM302.88 49.2227C303.843 46.2202 306.108 44.5773 309.224 44.5773C312.34 44.5773 314.55 46.2202 315.57 49.2227C315.683 49.506 315.627 49.7893 315.456 50.0159C315.287 50.2425 315.003 50.4125 314.72 50.4125H303.786C303.503 50.4125 303.22 50.2425 303.049 50.0159C302.823 49.7893 302.767 49.506 302.88 49.2227Z" fill="#0033FF"/>
<path d="M268.605 52.9608C268.605 60.6655 274.837 66.5007 283.165 66.5007C287.244 66.5007 290.982 65.0844 293.702 62.4785V62.3085L289.849 58.1163C288.377 59.9858 286.054 61.1188 283.618 61.1188C282.371 61.1188 281.182 60.8355 280.049 60.269C279.992 60.269 279.935 60.2123 279.878 60.1557L279.822 60.0991L279.709 60.0424C278.122 59.2492 276.819 57.8329 276.139 56.1334C275.97 55.7368 275.857 55.3402 275.743 54.887C275.686 54.6604 275.63 54.4905 275.63 54.3205L275.573 54.0372C275.573 53.9239 275.517 53.754 275.517 53.6407C275.517 53.4707 275.517 53.3007 275.517 53.1308C275.517 53.0175 275.517 52.9608 275.517 52.9608C275.517 52.7908 275.517 52.6209 275.517 52.4509V52.3376C275.517 52.2811 275.517 52.2811 275.517 52.2244C275.63 51.318 275.857 50.3548 276.253 49.505C276.31 49.3917 276.366 49.2218 276.423 49.1085C277.159 47.6355 278.293 46.5591 279.653 45.8226C280.842 45.1428 282.202 44.8029 283.618 44.8029C286.054 44.8029 288.32 45.8793 289.906 47.8055L293.758 43.4999C291.04 40.8939 287.244 39.4209 283.108 39.4209C274.837 39.4209 268.605 45.2561 268.605 52.9608Z" fill="#0033FF"/>
<path d="M264.752 65.2553V52.0552C264.526 46.05 262.883 40.498 252.856 40.498C250.76 40.498 248.89 40.7814 247.304 41.4045L246.737 41.6311V40.6114C246.737 40.5547 246.68 40.5547 246.68 40.5547H241.072C241.016 40.5547 241.016 40.6114 241.016 40.6114V65.2553C241.016 65.3118 241.072 65.3685 241.129 65.3685H247.587C247.644 65.3685 247.7 65.3118 247.7 65.2553V51.3754C247.7 50.5823 247.813 49.8457 247.984 49.1659C248.72 47.2397 250.703 45.88 252.912 45.8234C255.065 45.8234 257.104 47.183 257.841 49.1093C258.068 49.7891 258.124 50.5256 258.124 51.3187V65.1986C258.124 65.2552 258.181 65.3118 258.238 65.3118L264.752 65.2553C264.752 65.3118 264.696 65.3685 264.752 65.2553Z" fill="#0033FF"/>
<path d="M211.67 40.6114V53.8681C211.895 59.8732 213.539 65.4252 223.566 65.4252C233.764 65.4252 235.237 58.6269 235.464 53.5848V40.6114C235.464 40.5547 235.406 40.498 235.35 40.498H228.892C228.835 40.498 228.778 40.5547 228.778 40.6114V54.4913C228.778 55.2844 228.665 56.0208 228.495 56.7007C227.758 58.6269 225.775 59.9865 223.566 60.0432C221.414 60.0432 219.374 58.6835 218.638 56.7573C218.411 56.0775 218.354 55.341 218.354 54.5478V40.6114C218.354 40.5547 218.298 40.498 218.241 40.498H211.782C211.726 40.498 211.67 40.5547 211.67 40.6114Z" fill="#0033FF"/>
<path d="M192.917 39.3086C184.645 39.3086 178.357 45.1438 178.357 52.8485C178.357 60.5532 184.589 66.3884 192.917 66.3884C201.244 66.3884 207.534 60.5532 207.534 52.8485C207.534 45.0871 201.244 39.3086 192.917 39.3086ZM192.917 60.7799C188.612 60.7799 185.325 57.3807 185.325 52.8485C185.325 48.373 188.668 44.9171 192.917 44.9171C197.223 44.9171 200.565 48.4296 200.565 52.8485C200.565 57.2674 197.166 60.7799 192.917 60.7799Z" fill="#0033FF"/>
<path d="M163.174 65.9347C170.029 65.9347 175.241 60.2695 175.241 52.7914C175.241 45.37 169.973 39.5347 163.174 39.5347C159.549 39.5347 156.263 41.0076 153.94 43.727L153.203 44.5201V27.9776C153.203 27.9209 153.147 27.8643 153.09 27.8643H146.632C146.575 27.8643 146.519 27.9209 146.519 27.9776V65.255C146.519 65.3116 146.575 65.3683 146.632 65.3683H152.694C152.751 65.3683 152.807 65.3116 152.807 65.255V60.6094L153.543 61.4593C155.866 64.3485 159.266 65.9347 163.174 65.9347ZM161.758 45.2C166.064 45.2 169.237 48.3725 169.237 52.7347C169.237 57.0404 166.007 60.2695 161.758 60.2695C157.51 60.2695 154.167 56.9837 154.167 52.7914C154.167 48.4858 157.453 45.2 161.758 45.2Z" fill="#0033FF"/>
<path d="M141.307 65.3685C141.363 65.3685 141.42 65.3118 141.42 65.2553V52.0552C141.194 46.05 139.551 40.498 129.523 40.498C127.427 40.498 125.557 40.7814 123.971 41.4045L123.405 41.6311V40.6114C123.405 40.5547 123.348 40.5547 123.292 40.5547H117.682C117.626 40.5547 117.626 40.6114 117.626 40.6114V65.2553C117.626 65.3118 117.682 65.3685 117.74 65.3685H124.197C124.254 65.3685 124.311 65.3118 124.311 65.2553V51.3754C124.311 50.5823 124.424 49.8457 124.594 49.1659C125.331 47.2397 127.313 45.88 129.523 45.8234C131.676 45.8234 133.715 47.183 134.452 49.1093C134.679 49.7891 134.735 50.5256 134.735 51.3187V65.1986C134.735 65.2552 134.792 65.3118 134.848 65.3118H141.307V65.3685Z" fill="#0033FF"/>
<path d="M88.7331 40.6114V53.8681C88.9598 59.8732 90.6026 65.4252 100.63 65.4252C110.828 65.4252 112.301 58.6269 112.527 53.5848V40.6114C112.527 40.5547 112.47 40.498 112.414 40.498H105.955C105.899 40.498 105.842 40.5547 105.842 40.6114V54.4913C105.842 55.2844 105.729 56.0208 105.559 56.7007C104.822 58.6269 102.839 59.9865 100.63 60.0432C98.4777 60.0432 96.4378 58.6835 95.7014 56.7573C95.4748 56.0775 95.4181 55.341 95.4181 54.5478V40.6114C95.4181 40.5547 95.3614 40.498 95.3049 40.498H88.8464C88.7331 40.498 88.7331 40.5547 88.7331 40.6114Z" fill="#0033FF"/>
<path d="M48.0568 22.7656C31.4009 22.7656 17.9177 36.2489 17.9177 52.9047C17.9177 69.5606 31.4009 83.0438 48.0568 83.0438C64.7126 83.0438 78.1959 69.5606 78.1959 52.9047C78.1959 36.2489 64.7126 22.7656 48.0568 22.7656ZM46.9804 64.7451L44.771 71.2601C44.7143 71.4868 44.601 71.6568 44.4876 71.8267C44.2044 72.2799 43.8644 72.6198 43.4112 72.8464C43.0147 73.0731 42.5615 73.1863 42.1082 73.1863C41.825 73.1863 41.485 73.1297 41.2018 73.0164C39.9554 72.5632 39.1623 71.3168 39.3323 70.0705C33.1004 66.8979 28.8515 60.3829 28.8515 52.9047C28.8515 42.2541 37.4628 33.5863 48.1701 33.5863C49.4164 33.5863 50.6062 33.6995 51.7958 33.9262C52.4757 32.8497 53.8353 32.3399 55.0816 32.7364C55.7615 32.9631 56.2714 33.4163 56.6113 33.9828C56.8946 34.4927 57.0645 35.0592 57.0078 35.6823C57.0078 35.909 56.9512 36.1356 56.8946 36.3055L54.6851 42.8206L46.9804 64.7451ZM49.4164 72.1666L52.0791 64.1219C56.6679 62.479 59.9537 58.1167 59.9537 52.9047C59.9537 50.4687 59.2173 48.146 57.9143 46.2764L60.5769 38.2317C64.7126 41.7442 67.3752 47.0129 67.3752 52.9047C67.3186 63.1022 59.444 71.4301 49.4164 72.1666Z" fill="#0033FF"/>
<path d="M36.1597 52.9048C36.1597 57.0971 38.3692 60.7795 41.655 62.9323L49.1332 41.0645C48.7932 41.0078 48.3967 41.0078 48.0568 41.0078C41.4851 41.0078 36.1597 46.3331 36.1597 52.9048Z" fill="#0033FF"/>
</g>
<defs>
<clipPath id="clip0_1_454">
<rect width="340" height="104.61" fill="white" transform="translate(0 0.599609)"/>
</clipPath>
</defs>
</svg>
