<svg width="340" height="107" viewBox="0 0 340 107" fill="none" xmlns="http://www.w3.org/2000/svg">
<g clip-path="url(#clip0_1_502)">
<g clip-path="url(#clip1_1_502)">
<path d="M42.4739 52.6941L60.2662 80.6507C60.6943 81.2947 61.4434 81.6702 62.2194 81.6434H68.8279C70.0586 81.6702 71.0753 80.6776 71.1021 79.4165C71.1021 79.3897 71.1021 79.3897 71.1021 79.3629V20.1497C71.1021 18.8887 70.0586 17.8692 68.8012 17.896C68.1055 17.896 67.4634 18.218 67.0353 18.7545L42.4739 49.9843C41.9388 50.7892 41.9388 51.8625 42.4739 52.6941Z" fill="#5757F5"/>
<path d="M22.4608 81.6433H34.2065C35.4372 81.6702 36.4539 80.6775 36.4806 79.4165C36.4806 79.3896 36.4806 79.3896 36.4806 79.3628V64.3382C36.4539 63.0771 35.4104 62.0577 34.1529 62.0845C33.4841 62.0845 32.8419 62.4065 32.4138 62.943L20.6682 77.9677C19.9191 78.9872 20.1331 80.436 21.1498 81.1872C21.5244 81.4824 21.9792 81.6433 22.4608 81.6433Z" fill="#5757F5"/>
<path d="M232.25 47.864C232.116 47.703 231.955 47.542 231.821 47.4078L231.58 47.1932L231.447 47.0859C230.885 46.6029 230.27 46.2006 229.628 45.8518C228.932 45.4225 228.182 45.0737 227.406 44.8054C226.631 44.5102 225.801 44.2956 224.971 44.1615C222.832 43.7859 220.664 43.8932 218.577 44.4834C217.346 44.8322 216.142 45.342 215.019 45.9859C213.922 46.6298 212.905 47.4079 211.996 48.3201C211.086 49.2323 210.31 50.2518 209.641 51.325C208.973 52.425 208.437 53.6055 208.089 54.8665C207.367 57.4422 207.367 60.1788 208.089 62.7544C208.437 63.9887 208.973 65.1691 209.641 66.2692C210.31 67.3692 211.112 68.3619 211.996 69.2741C212.905 70.1863 213.922 70.9644 215.019 71.6082C216.142 72.2253 217.32 72.7351 218.55 73.1108C220.691 73.7546 222.938 73.8619 225.132 73.4327C225.962 73.2986 226.791 73.0571 227.593 72.7351C228.343 72.4132 229.066 72.0644 229.787 71.6351C230.484 71.2327 231.152 70.7497 231.794 70.2668C231.981 70.1058 232.142 69.9448 232.303 69.757L232.383 69.6765C232.543 69.4887 232.651 69.274 232.731 69.0594L232.757 68.8717C232.784 68.5765 232.704 68.2814 232.543 68.0131L232.464 67.9058C232.409 67.8253 232.356 67.718 232.276 67.6375L232.089 67.3692C231.714 66.8594 231.34 66.3228 230.965 65.8667C230.804 65.6789 230.59 65.5179 230.376 65.4374C230.136 65.3569 229.895 65.3569 229.681 65.4374C229.359 65.5716 229.066 65.7862 228.797 66.0545L228.45 66.3497C228.102 66.618 227.942 66.8057 227.46 67.1545C227.032 67.4765 226.577 67.7448 226.096 67.9863C225.587 68.2546 225.026 68.4424 224.437 68.5765C222.563 68.9789 220.583 68.7912 218.818 67.9863C217.694 67.4765 216.651 66.7521 215.795 65.8667C214.912 64.9545 214.19 63.9082 213.681 62.7276C212.611 60.3129 212.611 57.5764 213.681 55.1617C214.19 53.9811 214.885 52.908 215.795 51.9957C216.678 51.1103 217.721 50.386 218.845 49.8225C220.477 49.0444 222.323 48.8298 224.089 49.2054C224.678 49.3396 225.266 49.5274 225.828 49.742C226.363 49.9835 226.872 50.2518 227.379 50.547C228.424 51.164 229.573 52.908 230.724 51.5128L232.356 49.3127C232.517 49.0981 232.57 48.8298 232.517 48.5616C232.49 48.3201 232.409 48.0786 232.25 47.864Z" fill="#242A35"/>
<path d="M131.542 71.3406L113.616 30.4789C113.375 29.8618 112.786 29.4594 112.118 29.4326H109.255C108.586 29.4326 107.997 29.835 107.757 30.4253L89.7772 71.3138C89.5364 71.8236 89.5631 72.4138 89.8841 72.8967C90.1785 73.3797 90.7136 73.6748 91.2755 73.6748H93.9243C94.5931 73.7016 95.1817 73.2992 95.4225 72.6821L99.7302 62.5941H121.509L125.79 72.6821C126.03 73.2992 126.646 73.7016 127.315 73.7285H129.911C130.445 73.7553 130.98 73.5138 131.302 73.0845C131.676 72.5748 131.756 71.9309 131.542 71.3406ZM102.031 57.3623L102.111 57.2013L110.753 37.0522L119.422 57.3623H102.031Z" fill="#242A35"/>
<path d="M295.526 54.2769C295.071 52.694 294.375 51.1915 293.466 49.85C292.797 48.9378 291.994 48.1061 291.138 47.3816C290.309 46.6573 289.372 46.0402 288.355 45.6109C287.365 45.1279 286.322 44.7256 285.252 44.4573C282.871 43.867 280.355 43.9206 277.974 44.5914C276.77 44.9401 275.594 45.4231 274.523 46.0939C273.453 46.7646 272.463 47.5426 271.58 48.4549C270.697 49.3403 269.975 50.3598 269.386 51.4598C268.771 52.5866 268.289 53.794 267.968 55.0281C267.406 57.0135 267.299 59.0794 267.647 61.1185C267.727 61.9234 267.888 62.7015 268.102 63.4527C268.556 65.0357 269.252 66.5381 270.161 67.9064C270.831 68.8186 271.634 69.6504 272.49 70.3747C273.319 71.0992 274.256 71.7163 275.272 72.1723C276.262 72.6553 277.305 73.0577 278.375 73.326C282.015 74.2115 285.894 73.6212 289.105 71.6894C290.175 71.0187 291.165 70.2406 292.048 69.3553C292.904 68.4967 293.599 67.504 294.161 66.4576L294.215 66.3503C294.429 66.0552 294.456 65.6795 294.295 65.3576C294.161 65.1162 293.921 64.9552 293.626 64.9552H289.345C288.971 64.9552 288.623 65.1162 288.409 65.3844C287.874 66.0283 287.232 66.6186 286.536 67.1016C285.787 67.5844 284.957 67.9601 284.101 68.2015C282.201 68.765 280.168 68.6845 278.322 68.0405C277.332 67.6917 276.396 67.1821 275.566 66.5381C274.737 65.8942 274.068 65.0893 273.559 64.1503C273.131 63.1575 272.811 62.1112 272.624 61.038L272.597 60.9038H272.73L294.723 60.8502C295.633 60.8502 296.141 60.2868 296.141 59.2941C296.248 57.5502 296.034 55.8867 295.526 54.2769ZM290.844 56.2354L273.052 56.3159L273.105 56.155C273.4 55.1355 273.854 54.1964 274.416 53.3111C275.111 52.2647 276.022 51.3793 277.038 50.6549C277.787 50.172 278.617 49.7963 279.473 49.5548C281.372 48.9915 283.405 49.072 285.252 49.7158C286.242 50.0646 287.178 50.5744 288.007 51.2184C288.838 51.8622 289.506 52.694 290.014 53.6062C290.443 54.3574 290.763 55.1891 290.951 56.0477L290.977 56.1819H290.844V56.2354Z" fill="#242A35"/>
<path d="M163.14 69.2748C164.023 68.3626 164.799 67.343 165.468 66.2698C166.11 65.143 166.619 63.9624 166.966 62.7015C167.689 60.1258 167.689 57.3892 166.966 54.8136C166.619 53.5794 166.11 52.3721 165.468 51.2452C164.183 49.0452 162.337 47.1939 160.117 45.8792C159.02 45.2354 157.843 44.7256 156.612 44.3768C153.455 43.4646 150.083 43.6792 147.06 44.9671C145.776 45.5573 144.599 46.3085 143.528 47.1939L143.342 47.3549V45.7988C143.422 45.0744 142.913 44.4304 142.191 44.3499C142.083 44.3499 141.977 44.3499 141.896 44.3499H139.649C138.899 44.2694 138.231 44.7792 138.151 45.5305C138.151 45.611 138.151 45.7183 138.151 45.7988V80.1676C138.124 80.9457 138.74 81.6165 139.515 81.6433C139.542 81.6433 139.542 81.6433 139.569 81.6433H141.869C142.271 81.6433 142.672 81.5092 142.967 81.2409C143.234 80.9725 143.395 80.5969 143.368 80.1945V70.1602L143.556 70.3212C144.599 71.2065 145.776 71.9578 147.034 72.5212C150.057 73.8358 153.428 74.0505 156.586 73.1114C157.816 72.7627 159.02 72.2529 160.143 71.609C161.214 70.965 162.231 70.187 163.14 69.2748ZM156.317 67.826C153.99 68.8991 151.341 68.8991 149.014 67.826C147.863 67.3162 146.846 66.5649 145.99 65.626C145.107 64.7137 144.412 63.6406 143.929 62.46C142.94 60.0722 142.94 57.3623 143.929 54.9745C144.438 53.8209 145.133 52.7745 145.99 51.8623C146.846 50.95 147.889 50.2257 149.014 49.7159C151.314 48.6427 153.99 48.6427 156.317 49.7159C157.441 50.2525 158.458 50.9769 159.314 51.8623C160.17 52.7745 160.866 53.8209 161.347 54.9745C162.364 57.3623 162.364 60.0722 161.347 62.46C160.839 63.6137 160.17 64.7137 159.314 65.6528C158.458 66.5649 157.441 67.3162 156.317 67.826Z" fill="#242A35"/>
<path d="M177.321 44.3768H175.074C174.324 44.2963 173.656 44.8061 173.575 45.5573C173.575 45.6647 173.575 45.772 173.575 45.8524V80.1945C173.575 80.5701 173.709 80.9457 173.976 81.2409C174.244 81.5092 174.618 81.6433 174.993 81.6433H177.294C177.696 81.6433 178.097 81.5092 178.391 81.2409C178.659 80.9725 178.819 80.5969 178.792 80.1945V70.1602L178.98 70.3212C180.023 71.2065 181.2 71.9578 182.457 72.5212C185.482 73.8358 188.852 74.0505 192.009 73.1114C193.24 72.7627 194.444 72.2529 195.568 71.609C196.665 70.965 197.681 70.1602 198.591 69.2748C199.474 68.3626 200.25 67.343 200.892 66.2698C201.535 65.143 202.043 63.9624 202.391 62.7015C203.113 60.1258 203.113 57.3892 202.391 54.8136C202.043 53.5794 201.535 52.3721 200.892 51.2452C199.608 49.0452 197.762 47.1939 195.568 45.8792C194.471 45.2354 193.293 44.7256 192.063 44.3768C188.906 43.4646 185.535 43.6792 182.512 44.9671C181.227 45.5573 180.049 46.3085 178.98 47.1939L178.766 47.4086V45.8524C178.873 45.128 178.364 44.4573 177.641 44.3768C177.535 44.3768 177.427 44.3768 177.321 44.3768ZM179.354 55.0281C179.863 53.8745 180.558 52.8281 181.414 51.916C182.271 51.0037 183.314 50.2794 184.437 49.7428C186.739 48.6695 189.414 48.6695 191.742 49.7428C192.865 50.2794 193.91 51.0037 194.766 51.8891C195.621 52.8013 196.318 53.8477 196.799 55.0013C197.815 57.3892 197.815 60.099 196.799 62.4868C196.318 63.6674 195.621 64.7405 194.766 65.6796C193.91 66.5918 192.92 67.343 191.795 67.8797C189.467 68.9528 186.792 68.9528 184.492 67.8797C183.341 67.3699 182.324 66.6186 181.468 65.6796C180.585 64.7674 179.89 63.6942 179.408 62.5137C178.391 60.1258 178.364 57.416 179.354 55.0281Z" fill="#242A35"/>
<path d="M261.921 45.4499C262.002 44.7255 261.466 44.0548 260.744 43.9743C260.637 43.9743 260.53 43.9743 260.423 43.9743H258.149C257.426 43.8938 256.784 44.4036 256.677 45.128C256.677 45.2353 256.677 45.3426 256.677 45.4231V61.8966C256.704 62.8624 256.49 63.8283 256.062 64.6869C255.714 65.4917 255.179 66.1893 254.51 66.7528C253.868 67.2893 253.146 67.7186 252.37 68.0137C250.604 68.6845 248.624 68.5772 246.938 67.7454C246.136 67.343 245.44 66.7528 244.932 66.0283C244.396 65.3307 244.022 64.5527 243.834 63.6942C243.62 62.8356 243.514 61.9502 243.487 61.0648V45.8792C243.514 45.3694 243.406 44.8865 243.139 44.4572C242.764 44.0816 242.229 43.8938 241.721 43.9475H240.089C239.607 43.9207 239.126 44.1085 238.778 44.4572C238.403 44.8596 238.216 45.3963 238.27 45.9597V61.1185C238.242 62.7819 238.511 64.4186 238.992 66.0015C239.474 67.4771 240.222 68.8455 241.212 70.026C242.202 71.1797 243.433 72.1187 244.824 72.7089C247.259 73.7017 249.909 73.9431 252.476 73.4334C253.172 73.2724 253.841 73.0309 254.483 72.7358C255.098 72.4406 255.66 72.0918 256.142 71.6358L256.49 71.3138L256.677 71.126V72.2796C256.677 72.6285 256.811 72.9504 257.052 73.1919C257.319 73.5407 257.748 73.7285 258.202 73.7017H260.503C260.878 73.7017 261.252 73.5675 261.519 73.2992C261.814 73.0309 261.975 72.6553 261.921 72.2528V45.4499Z" fill="#242A35"/>
<path d="M319.579 61.5749C319.097 60.5823 318.402 59.6968 317.546 58.9724C316.609 58.1944 315.566 57.5773 314.442 57.1212C313.184 56.5845 311.873 56.1821 310.536 55.9139C309.893 55.7529 309.251 55.5651 308.609 55.3236C308.047 55.1089 307.513 54.8406 307.004 54.4918C306.335 54.0894 305.8 53.4724 305.506 52.7479C305.345 52.2113 305.345 51.621 305.506 51.0845C305.693 50.4674 306.442 48.804 309.412 48.6162C312.248 48.4283 313.666 49.9308 314.148 50.6016C314.228 50.682 314.924 51.5942 315.405 52.1576C315.485 52.2381 315.592 52.3186 315.699 52.3723C316.1 52.5333 316.582 52.4796 316.931 52.2113L318.642 50.9235C319.017 50.682 319.258 50.2796 319.258 49.8235V49.7698C319.178 49.4478 319.044 49.126 318.856 48.8308C318.348 48.1064 317.786 47.4088 317.198 46.7381C316.662 46.121 316.047 45.5844 315.378 45.1282C314.656 44.6991 313.906 44.3503 313.077 44.1356C310.776 43.5453 308.342 43.6526 306.095 44.4039C304.944 44.7527 303.901 45.3161 302.99 46.0942C302.135 46.8186 301.438 47.7307 300.957 48.7503C300.02 50.8162 299.967 53.2041 300.877 55.2968C301.305 56.2357 301.921 57.0675 302.723 57.7651C303.579 58.4894 304.489 59.1066 305.478 59.6163C306.629 60.153 307.86 60.609 309.09 60.931C309.465 61.0114 309.813 61.1188 310.214 61.2261C310.589 61.3334 310.964 61.4407 311.339 61.5212C312.007 61.6822 312.649 61.9237 313.264 62.2457C313.773 62.4871 314.228 62.8359 314.602 63.292C315.271 64.2579 315.244 65.5457 314.549 66.4848C314.174 66.9677 313.72 67.3702 313.184 67.6921C312.649 68.014 312.06 68.2555 311.472 68.3897C310.455 68.6311 309.385 68.6311 308.368 68.3897C307.833 68.2555 307.325 68.0677 306.816 67.7994C306.309 67.5579 305.853 67.236 305.425 66.8604C305.05 66.4311 304.703 65.9481 304.435 65.4384C304.302 65.1432 304.115 64.875 303.873 64.6604C303.472 64.3116 302.911 64.2579 302.455 64.4994L300.395 65.4652C300.208 65.5457 300.075 65.653 299.914 65.7872C299.806 65.8945 299.7 66.0286 299.646 66.1628C299.566 66.3774 299.539 66.5921 299.592 66.8067C299.619 67.0214 299.673 67.236 299.753 67.4506C300.101 68.3897 300.609 69.2751 301.251 70.0531C301.947 70.9117 302.83 71.6093 303.793 72.1189C304.703 72.6556 305.693 73.058 306.71 73.2727C309.064 73.8361 311.552 73.7556 313.88 73.058C315.11 72.7092 316.261 72.1189 317.251 71.341C318.214 70.6165 318.99 69.6507 319.525 68.5506C320.596 66.3506 320.596 63.8018 319.579 61.5749Z" fill="#242A35"/>
</g>
</g>
<defs>
<clipPath id="clip0_1_502">
<rect width="340" height="105.58" fill="white" transform="translate(0 0.509766)"/>
</clipPath>
<clipPath id="clip1_1_502">
<rect width="340" height="105.58" fill="white" transform="translate(0 0.509766)"/>
</clipPath>
</defs>
</svg>
