<svg width="420" height="215" viewBox="0 0 420 215" fill="none" xmlns="http://www.w3.org/2000/svg">
<path d="M274.534 45.5937L273.012 42.6109C261.6 20.2236 238.919 6.31348 213.829 6.31348C177.203 6.31348 147.411 36.1064 147.411 72.7314C147.411 109.357 177.203 139.15 213.829 139.15C238.919 139.15 261.6 125.239 273.019 102.852L274.541 99.8694L247.403 72.7314L274.541 45.5937H274.534ZM263.21 101.576C252.959 119.151 234.325 129.929 213.821 129.929C182.282 129.929 156.619 104.265 156.619 72.7247C156.619 41.1845 182.288 15.5278 213.829 15.5278C234.333 15.5278 252.959 26.3051 263.218 43.8806L240.885 66.2133L213.829 39.1573L180.261 72.7247L213.829 106.292L240.885 79.2361L263.218 101.569L263.21 101.576ZM234.359 72.7247L213.821 93.2623L193.284 72.7247L213.821 52.187L234.359 72.7247Z" fill="#3640E8"/>
<path d="M4.64737 176.466C4.64737 164.286 13.677 154.844 26.2699 154.844C33.8703 154.844 40.5832 158.705 44.1463 164.645L37.0811 168.743C35.0625 165.058 31.0184 162.803 26.2699 162.803C18.1343 162.803 12.7829 168.446 12.7829 176.466C12.7829 184.487 18.1275 190.068 26.2699 190.068C31.0184 190.068 35.1234 187.812 37.0811 184.188L44.1463 188.286C40.6442 194.228 33.9312 198.089 26.2699 198.089C13.677 198.089 4.64737 188.585 4.64737 176.466Z" fill="#3640E8"/>
<path d="M47.1539 182.406C47.1539 173.553 54.104 166.725 62.8357 166.725C71.5673 166.725 78.5783 173.553 78.5783 182.406C78.5783 191.26 71.5673 198.088 62.8357 198.088C54.104 198.088 47.1539 191.26 47.1539 182.406ZM70.917 182.406C70.917 177.597 67.4149 174.209 62.8357 174.209C58.2564 174.209 54.8153 177.597 54.8153 182.406C54.8153 187.216 58.3175 190.602 62.8357 190.602C67.3539 190.602 70.917 187.216 70.917 182.406Z" fill="#3640E8"/>
<path d="M111.446 179.019V197.254H103.784V179.968C103.784 175.93 101.345 173.85 97.9043 173.85C94.1651 173.85 91.3675 176.045 91.3675 181.213V197.254H83.7061V167.55H91.3675V170.876C93.149 168.201 96.2384 166.718 100.221 166.718C106.514 166.718 111.446 171.114 111.446 179.012V179.019Z" fill="#3640E8"/>
<path d="M127.696 174.921V187.277C127.696 190.488 130.014 190.541 134.409 190.305V197.255C123.659 198.441 120.035 195.297 120.035 187.277V174.921H114.866V167.557H120.035V161.556L127.696 159.239V167.557H134.409V174.921H127.696Z" fill="#3640E8"/>
<path d="M154.318 191.138C157.285 191.138 159.663 189.891 160.97 188.171L167.148 191.734C164.357 195.771 159.899 198.088 154.197 198.088C144.218 198.088 137.918 191.26 137.918 182.406C137.918 173.553 144.272 166.725 153.6 166.725C162.392 166.725 168.631 173.674 168.631 182.406C168.631 183.538 168.509 184.546 168.333 185.556H145.939C147.008 189.478 150.274 191.138 154.311 191.138H154.318ZM160.97 179.616C160.022 175.341 156.811 173.613 153.607 173.613C149.509 173.613 146.717 175.808 145.824 179.616H160.97Z" fill="#3640E8"/>
<path d="M201.58 179.019V197.254H193.919V179.968C193.919 175.93 191.48 173.85 188.039 173.85C184.3 173.85 181.502 176.045 181.502 181.213V197.254H173.84V167.55H181.502V170.876C183.284 168.201 186.373 166.718 190.355 166.718C196.649 166.718 201.58 171.114 201.58 179.012V179.019Z" fill="#3640E8"/>
<path d="M217.831 174.921V187.277C217.831 190.488 220.148 190.541 224.544 190.305V197.255C213.793 198.441 210.17 195.297 210.17 187.277V174.921H205V167.557H210.17V161.556L217.831 159.239V167.557H224.544V174.921H217.831Z" fill="#3640E8"/>
<path d="M252.418 188.584C252.418 194.999 246.837 198.088 240.476 198.088C234.535 198.088 230.139 195.595 227.999 191.016L234.65 187.276C235.483 189.715 237.502 191.138 240.469 191.138C242.908 191.138 244.567 190.305 244.567 188.584C244.567 184.249 229.245 186.627 229.245 176.167C229.245 170.112 234.414 166.725 240.53 166.725C245.339 166.725 249.499 168.919 251.815 173.025L245.279 176.587C244.384 174.684 242.725 173.56 240.523 173.56C238.62 173.56 237.076 174.393 237.076 175.998C237.076 180.394 252.398 177.664 252.398 188.591L252.418 188.584Z" fill="#3640E8"/>
<path d="M287.358 167.558V209.136H279.697V193.752C277.557 196.482 274.414 198.088 270.071 198.088C262.112 198.088 255.575 191.26 255.575 182.406C255.575 173.553 262.112 166.725 270.071 166.725C274.407 166.725 277.557 168.33 279.697 171.06V167.558H287.358ZM279.697 182.406C279.697 177.414 276.195 174.033 271.501 174.033C266.806 174.033 263.243 177.42 263.243 182.406C263.243 187.392 266.745 190.779 271.501 190.779C276.256 190.779 279.697 187.392 279.697 182.406Z" fill="#3640E8"/>
<path d="M321.635 167.559V197.262H313.974V193.936C312.192 196.612 309.103 198.095 305.12 198.095C298.827 198.095 293.895 193.699 293.895 185.8V167.565H301.557V184.852C301.557 188.889 303.995 190.969 307.437 190.969C311.176 190.969 313.974 188.774 313.974 183.606V167.565H321.635V167.559Z" fill="#3640E8"/>
<path d="M358.675 167.558V197.261H351.014V193.759C348.873 196.436 345.668 198.095 341.334 198.095C333.435 198.095 326.898 191.267 326.898 182.414C326.898 173.56 333.435 166.731 341.334 166.731C345.668 166.731 348.88 168.398 351.014 171.067V167.565H358.675V167.558ZM351.014 182.406C351.014 177.414 347.511 174.034 342.756 174.034C338.001 174.034 334.559 177.421 334.559 182.406C334.559 187.392 338.061 190.779 342.756 190.779C347.45 190.779 351.014 187.392 351.014 182.406Z" fill="#3640E8"/>
<path d="M382.167 166.962V175.517C378.184 175.043 373.137 176.824 373.137 183.063V197.261H365.476V167.558H373.137V172.666C374.681 168.628 378.421 166.962 382.167 166.962Z" fill="#3640E8"/>
<path d="M401.04 191.138C404.006 191.138 406.384 189.891 407.691 188.171L413.87 191.734C411.078 195.771 406.621 198.088 400.917 198.088C390.939 198.088 384.64 191.26 384.64 182.406C384.64 173.553 390.994 166.725 400.321 166.725C409.114 166.725 415.353 173.674 415.353 182.406C415.353 183.538 415.231 184.546 415.055 185.556H392.66C393.73 189.478 396.995 191.138 401.032 191.138H401.04ZM407.691 179.616C406.743 175.341 403.532 173.613 400.328 173.613C396.23 173.613 393.439 175.808 392.545 179.616H407.691Z" fill="#3640E8"/>
</svg>
