<svg width="340" height="106" viewBox="0 0 340 106" fill="none" xmlns="http://www.w3.org/2000/svg">
<g clip-path="url(#clip0_1_466)">
<g clip-path="url(#clip1_1_466)">
<path d="M117.448 44.7976C117.934 44.409 118.419 43.9234 118.711 43.4377C120.168 41.6892 121.139 39.6492 121.625 37.5122C122.305 34.0152 121.333 30.421 118.905 27.7983C116.574 25.3698 113.659 24.3984 108.803 24.3984H89.2776L86.1691 41.8834H77.7181L79.9523 50.9174H84.6149L81.1179 70.928H103.751C109.191 70.928 113.271 69.568 116.671 66.751C119.682 64.1282 121.625 60.5341 122.208 56.6485C122.985 52.8601 121.819 48.8774 119.099 46.1575C118.614 45.4776 118.031 45.089 117.448 44.7976ZM98.7972 33.4324H106.277C108.9 33.4324 109.774 34.1123 110.357 34.7923C110.94 35.5694 111.134 36.5408 110.94 37.5122C110.745 38.5807 110.162 39.6492 109.288 40.3292C108.414 41.1063 107.345 41.7863 104.626 41.7863H97.4373L98.7972 33.4324ZM111.425 56.26C111.134 57.7171 110.357 59.077 109.288 60.0484C107.928 61.3112 106.18 61.894 103.557 61.894H93.8431L95.3973 52.9573L95.7859 50.9174H105.694C108.997 50.9174 110.065 51.8887 110.648 52.6659C111.425 53.6372 111.62 54.9972 111.425 56.26Z" fill="url(#paint0_linear_1_466)"/>
<path d="M55.6675 24.3984L24.2917 70.928H36.8226L44.2051 59.9513H62.4673L65.1871 70.928H77.7181L66.0614 24.3984H55.6675ZM50.3249 50.9174L57.6103 40.1349L60.2331 50.9174H50.3249Z" fill="url(#paint1_linear_1_466)"/>
<path d="M181.074 24.3984H137.556L136.196 31.9753H153.681L146.784 70.928H155.332L162.229 31.9753H179.714L181.074 24.3984Z" fill="url(#paint2_linear_1_466)"/>
<path d="M199.724 41.7863C197.199 37.5122 193.216 35.3751 187.679 35.3751C182.239 35.278 176.994 37.5122 173.303 41.592C169.514 45.6718 167.377 51.0145 167.474 56.5514C167.28 60.6312 168.64 64.6139 171.36 67.7224C173.983 70.5394 177.577 71.8993 182.239 71.8993C187.388 71.9965 192.245 69.7623 195.45 65.7796L194.77 70.8308H202.736L208.856 36.2494H200.696L199.724 41.7863ZM194.188 60.8255C191.759 63.3511 188.359 64.7111 184.862 64.6139C179.131 64.6139 175.731 61.2141 175.731 55.58C175.634 52.1801 176.994 48.8774 179.325 46.4489C181.754 43.9233 185.154 42.5634 188.651 42.6605C194.479 42.6605 197.879 46.1575 197.879 51.6944C197.976 55.0943 196.616 58.397 194.188 60.8255Z" fill="url(#paint3_linear_1_466)"/>
<path d="M230.518 41.5923C236.152 41.5923 238.289 43.0494 238.386 46.1579V46.5464L245.671 43.2437C244.991 37.6097 239.746 35.2783 231.198 35.2783C220.027 35.2783 213.13 39.1639 213.13 47.3235C213.13 52.9576 216.53 55.6775 223.718 56.2603L231.003 56.9403C234.403 57.2317 235.86 58.106 235.86 60.4373C235.86 63.8372 232.655 65.4885 226.243 65.4885C220.415 65.4885 218.084 64.1286 217.889 60.923V60.6316C217.889 60.6316 210.507 63.8372 210.507 63.9343C211.187 69.6655 216.53 71.8025 225.078 71.8025C237.026 71.8025 244.506 67.8198 244.506 59.2716C244.506 53.6376 241.3 51.4034 233.82 50.6263L226.632 49.9463C223.329 49.6549 221.678 48.4892 221.678 46.255C221.581 43.2437 224.495 41.5923 230.518 41.5923Z" fill="url(#paint4_linear_1_466)"/>
<path d="M306.966 36.3466L290.549 62.477L283.653 36.3466H266.168L267.916 26.4385L258.785 30.4212L257.716 36.3466H251.111L249.751 43.4378H256.454L253.928 58.3972C252.568 66.2654 256.259 71.8995 265.293 71.8995H272.287L270.15 64.3226H267.625C262.962 64.3226 261.408 62.3799 262.282 57.8143C263.156 53.2488 264.808 43.5349 264.808 43.5349H277.144L284.721 71.9966L278.601 81.7105H287.344L315.708 36.3466H306.966Z" fill="url(#paint5_linear_1_466)"/>
<path opacity="0.8" d="M64.2158 66.7509L75.3867 61.7968L74.901 59.9512H62.4673L64.2158 66.7509Z" fill="#004052"/>
<path opacity="0.8" d="M83.255 58.2995L95.3972 52.8598L95.7858 50.917H84.6148L83.255 58.2995Z" fill="#004052"/>
</g>
</g>
<defs>
<linearGradient id="paint0_linear_1_466" x1="-21.3825" y1="92.4652" x2="350.135" y2="-46.1229" gradientUnits="userSpaceOnUse">
<stop stop-color="#006C8A"/>
<stop offset="0.25" stop-color="#217981"/>
<stop offset="0.5" stop-color="#009CB2"/>
<stop offset="0.75" stop-color="#00D4D4"/>
<stop offset="1" stop-color="#00F3F3"/>
</linearGradient>
<linearGradient id="paint1_linear_1_466" x1="-25.3035" y1="81.9735" x2="346.214" y2="-56.6242" gradientUnits="userSpaceOnUse">
<stop stop-color="#006C8A"/>
<stop offset="0.25" stop-color="#217981"/>
<stop offset="0.5" stop-color="#009CB2"/>
<stop offset="0.75" stop-color="#00D4D4"/>
<stop offset="1" stop-color="#00F3F3"/>
</linearGradient>
<linearGradient id="paint2_linear_1_466" x1="-15.5535" y1="108.087" x2="355.954" y2="-30.5111" gradientUnits="userSpaceOnUse">
<stop stop-color="#006C8A"/>
<stop offset="0.25" stop-color="#217981"/>
<stop offset="0.5" stop-color="#009CB2"/>
<stop offset="0.75" stop-color="#00D4D4"/>
<stop offset="1" stop-color="#00F3F3"/>
</linearGradient>
<linearGradient id="paint3_linear_1_466" x1="-8.03066" y1="128.268" x2="363.487" y2="-10.3298" gradientUnits="userSpaceOnUse">
<stop stop-color="#006C8A"/>
<stop offset="0.25" stop-color="#217981"/>
<stop offset="0.5" stop-color="#009CB2"/>
<stop offset="0.75" stop-color="#00D4D4"/>
<stop offset="1" stop-color="#00F3F3"/>
</linearGradient>
<linearGradient id="paint4_linear_1_466" x1="-3.58003" y1="140.181" x2="367.927" y2="1.58399" gradientUnits="userSpaceOnUse">
<stop stop-color="#006C8A"/>
<stop offset="0.25" stop-color="#217981"/>
<stop offset="0.5" stop-color="#009CB2"/>
<stop offset="0.75" stop-color="#00D4D4"/>
<stop offset="1" stop-color="#00F3F3"/>
</linearGradient>
<linearGradient id="paint5_linear_1_466" x1="2.57982" y1="156.698" x2="374.088" y2="18.1001" gradientUnits="userSpaceOnUse">
<stop stop-color="#006C8A"/>
<stop offset="0.25" stop-color="#217981"/>
<stop offset="0.5" stop-color="#009CB2"/>
<stop offset="0.75" stop-color="#00D4D4"/>
<stop offset="1" stop-color="#00F3F3"/>
</linearGradient>
<clipPath id="clip0_1_466">
<rect width="340" height="104.91" fill="white" transform="translate(0 0.599609)"/>
</clipPath>
<clipPath id="clip1_1_466">
<rect width="340" height="104.91" fill="white" transform="translate(0 0.599609)"/>
</clipPath>
</defs>
</svg>
