<svg width="340" height="106" viewBox="0 0 340 106" fill="none" xmlns="http://www.w3.org/2000/svg">
<g clip-path="url(#clip0_1_477)">
<g clip-path="url(#clip1_1_477)">
<mask id="mask0_1_477" style="mask-type:luminance" maskUnits="userSpaceOnUse" x="5" y="38" width="261" height="25">
<path d="M265.625 38.3438H5.84714V62.9217H265.625V38.3438Z" fill="white"/>
</mask>
<g mask="url(#mask0_1_477)">
<path d="M20.79 56.6289C16.7177 56.6289 13.959 54.4545 13.959 50.6327C13.959 46.811 16.7177 44.6365 20.79 44.6365C23.1245 44.6365 25.0356 45.3915 26.424 46.9613C26.8642 47.459 27.5789 47.6633 28.1673 47.3564L32.3933 45.1528C33.1379 44.7645 33.4106 43.8221 32.8705 43.1779C30.5246 40.3796 26.1951 38.3438 20.8886 38.3438C11.8899 38.3438 5.84714 42.7586 5.84714 50.6327C5.84714 58.5069 11.8899 62.9218 20.593 62.9218C26.1732 62.9218 30.5693 60.8997 32.965 58.0515C33.506 57.4082 33.2385 56.4643 32.4963 56.0718L28.2972 53.8501C27.7099 53.5394 26.9927 53.74 26.5546 54.2406C25.0948 55.9081 23.146 56.6289 20.79 56.6289Z" fill="#FF5721"/>
<path d="M58.3195 39.1016C57.5098 39.1016 56.8531 39.7601 56.8531 40.5724V47.3052H44.8004V40.5724C44.8004 39.7601 44.144 39.1016 43.3343 39.1016H38.2533C37.4435 39.1016 36.7871 39.7601 36.7871 40.5724V60.6934C36.7871 61.5053 37.4435 62.164 38.2533 62.164H43.3343C44.144 62.164 44.8004 61.5053 44.8004 60.6934V53.6309H56.8531V60.6934C56.8531 61.5053 57.5098 62.164 58.3195 62.164H63.4004C64.2102 62.164 64.8668 61.5053 64.8668 60.6934V40.5724C64.8668 39.7601 64.2102 39.1016 63.4004 39.1016H58.3195Z" fill="#FF5721"/>
<path d="M77.3349 62.164C78.1447 62.164 78.8008 61.5053 78.8008 60.6934V40.5724C78.8008 39.7601 78.1447 39.1016 77.3349 39.1016H72.2536C71.4437 39.1016 70.7876 39.7601 70.7876 40.5724V60.6934C70.7876 61.5053 71.4437 62.164 72.2536 62.164H77.3349Z" fill="#FF5721"/>
<path d="M92.3503 56.003V40.5724C92.3503 39.7601 91.6937 39.1016 90.8843 39.1016H85.803C84.9932 39.1016 84.337 39.7601 84.337 40.5724V60.6934C84.337 61.5053 84.9932 62.164 85.803 62.164H105.63C106.44 62.164 107.096 61.5053 107.096 60.6934V57.4739C107.096 56.6615 106.44 56.003 105.63 56.003H92.3503Z" fill="#FF5721"/>
<path d="M117.391 62.164C118.201 62.164 118.857 61.5053 118.857 60.6934V40.5724C118.857 39.7601 118.201 39.1016 117.391 39.1016H112.31C111.5 39.1016 110.844 39.7601 110.844 40.5724V60.6934C110.844 61.5053 111.5 62.164 112.31 62.164H117.391Z" fill="#FF5721"/>
<path d="M150.604 39.1016H135.945C135.135 39.1016 134.478 39.7601 134.478 40.5724V60.6934C134.478 61.5053 135.135 62.164 135.945 62.164H141.025C141.835 62.164 142.491 61.5053 142.491 60.6934V55.7395H150.604C157.205 55.7395 161.055 53.0049 161.055 47.404C161.055 41.8361 157.205 39.1016 150.604 39.1016ZM149.946 50.3692H142.491V44.8672H149.946C152.016 44.8672 153.493 45.559 153.493 47.6017C153.493 49.6444 152.016 50.3692 149.946 50.3692Z" fill="#FF5721"/>
<path d="M172.022 62.164C172.831 62.164 173.488 61.5053 173.488 60.6934V40.5724C173.488 39.7601 172.831 39.1016 172.022 39.1016H166.94C166.13 39.1016 165.475 39.7601 165.475 40.5724V60.6934C165.475 61.5053 166.13 62.164 166.94 62.164H172.022Z" fill="#FF5721"/>
<path d="M195.149 39.1016H180.49C179.68 39.1016 179.025 39.7601 179.025 40.5724V60.6934C179.025 61.5053 179.68 62.164 180.49 62.164H185.571C186.381 62.164 187.038 61.5053 187.038 60.6934V55.7395H195.149C201.75 55.7395 205.601 53.0049 205.601 47.404C205.601 41.8361 201.75 39.1016 195.149 39.1016ZM194.492 50.3692H187.038V44.8672H194.492C196.561 44.8672 198.039 45.559 198.039 47.6017C198.039 49.6444 196.561 50.3692 194.492 50.3692Z" fill="#FF5721"/>
<path d="M216.953 56.3654V53.1697H229.38C230.19 53.1697 230.845 52.5112 230.845 51.6988V49.3032C230.845 48.4908 230.19 47.8323 229.38 47.8323H216.953V44.9002H232.533C233.342 44.9002 233.998 44.2416 233.998 43.4293V40.5724C233.998 39.7601 233.342 39.1016 232.533 39.1016H210.57C209.761 39.1016 209.105 39.7601 209.105 40.5724V60.6934C209.105 61.5053 209.761 62.164 210.57 62.164H232.894C233.704 62.164 234.359 61.5053 234.359 60.6934V57.8362C234.359 57.024 233.704 56.3654 232.894 56.3654H216.953Z" fill="#FF5721"/>
<path d="M263.702 62.164C264.956 62.164 265.631 60.6875 264.813 59.734L260.428 54.6193C263.876 53.4662 265.625 51.0282 265.625 47.2393C265.625 41.7373 261.315 39.1016 255.173 39.1016H240.316C239.507 39.1016 238.851 39.7601 238.851 40.5724V60.6934C238.851 61.5053 239.507 62.164 240.316 62.164H245.332C246.142 62.164 246.798 61.5053 246.798 60.6934V55.377H252.184L256.887 61.0947C257.444 61.7716 258.274 62.164 259.149 62.164H263.702ZM246.798 50.0068V44.8672H254.516C256.585 44.8672 258.062 45.4602 258.062 47.4369C258.062 49.4138 256.585 50.0068 254.516 50.0068H246.798Z" fill="#FF5721"/>
</g>
<mask id="mask1_1_477" style="mask-type:luminance" maskUnits="userSpaceOnUse" x="246" y="16" width="88" height="87">
<path d="M333.256 16H246.365V102.693H333.256V16Z" fill="white"/>
</mask>
<g mask="url(#mask1_1_477)">
<path d="M321.788 40.5052C322.642 40.9296 323.694 40.6901 324.172 39.8652C324.635 39.0643 324.356 38.0515 323.563 37.5733C322.594 36.989 321.592 36.4539 320.56 35.9708C319.629 35.5346 319.159 34.466 319.469 33.4869C321.095 28.3445 321.413 22.8152 320.408 17.521C320.141 16.114 318.432 15.682 317.524 16.7912C317.276 17.0931 317.035 17.3997 316.799 17.7107C316.571 18.01 316.447 18.3738 316.427 18.7489C316.162 23.5891 314.837 28.1478 312.682 32.1986C312.314 32.8885 311.539 33.2427 310.762 33.1465C309.018 32.9301 307.255 32.8532 305.498 32.9162C305.006 32.9338 304.585 33.2663 304.413 33.7264C304.123 34.5004 304.617 35.3724 305.438 35.4842C311.115 36.2575 316.659 37.9574 321.788 40.5052Z" fill="#FF5721"/>
<path fill-rule="evenodd" clip-rule="evenodd" d="M302.663 61.538C301.975 62.5877 302.448 64.0168 303.654 64.3698C308.07 65.6618 312.563 66.4451 317.055 66.7409C318.998 66.8691 320.838 65.8878 321.84 64.2219C323.093 62.139 324.26 59.9988 325.335 57.8053C326.099 56.2472 326.817 54.6626 327.487 53.053C328.279 51.1504 327.649 48.9553 325.934 47.8087C317.738 42.3311 308.195 39.2513 298.232 38.9406C295.979 38.8704 294.117 40.5648 293.67 42.7692C293.552 43.3539 293.428 43.9364 293.297 44.5167C293.291 44.5482 293.283 44.5796 293.276 44.611V44.6123C293.263 44.675 293.248 44.7376 293.233 44.8003C293.194 44.9743 293.154 45.1491 293.112 45.323C292.868 46.361 292.607 47.392 292.324 48.4151C291.568 51.1639 290.678 53.858 289.661 56.4889C289.326 57.3566 289.653 58.3471 290.465 58.8044C291.821 59.5685 293.206 60.2831 294.616 60.9454C295.538 61.3785 296.629 60.9705 297.045 60.0431C297.687 58.615 298.286 57.1682 298.841 55.7039C299.628 53.6244 300.33 51.5105 300.937 49.3639C301.28 48.1545 301.594 46.935 301.875 45.7065C301.995 45.201 302.45 44.8417 302.97 44.8675C303.079 44.8729 303.187 44.8787 303.296 44.885C305.446 45.0072 307.124 45.1178 309.153 46.1774C309.748 46.489 309.982 47.2078 309.737 47.8334C307.791 52.8139 305.504 57.1981 302.663 61.538Z" fill="#FF5721"/>
<path d="M291.824 65.9589C292.833 66.4603 293.224 67.7125 292.618 68.6607C290.718 71.6378 288.629 74.4946 286.377 77.2151C285.745 77.978 286.737 79.0674 287.485 78.419C290.701 75.6306 293.727 72.6235 296.524 69.4168C297.051 68.8126 297.897 68.5954 298.654 68.8654C303.363 70.5479 308.186 71.6324 313.024 72.1463C314.269 72.2786 314.903 73.7394 314.079 74.6796C310.45 78.8189 306.427 82.6057 302.069 85.9819C300.273 87.373 297.989 87.9955 295.746 87.6313C289.317 86.5883 283.082 84.3839 277.439 81.1373C276.438 80.5609 276.244 79.2189 276.981 78.3301C277.357 77.8761 277.73 77.418 278.096 76.9564C281.067 73.2206 283.722 69.2385 286.028 65.0629C286.556 64.1071 287.775 63.7701 288.726 64.3104C289.743 64.8882 290.776 65.4379 291.824 65.9589Z" fill="#FF5721"/>
<path d="M273.453 85.1531C272.7 84.6598 271.703 84.7348 271.043 85.3439C267.56 88.5502 263.817 91.4718 259.855 94.0641C257.681 95.4874 255.442 96.8115 253.148 98.0313C250.943 99.2023 251.569 102.603 254.064 102.529C262.917 102.27 271.727 100.656 280.084 97.7126C281.969 97.0484 283.822 96.3209 285.644 95.5317C286.752 95.0522 287.845 94.5507 288.927 94.0266C289.818 93.5954 289.653 92.2856 288.698 92.0233C283.299 90.5392 278.135 88.2213 273.453 85.1531Z" fill="#FF5721"/>
</g>
</g>
</g>
<defs>
<clipPath id="clip0_1_477">
<rect width="340" height="104.61" fill="white" transform="translate(0 0.599609)"/>
</clipPath>
<clipPath id="clip1_1_477">
<rect width="340" height="104.61" fill="white" transform="translate(0 0.599609)"/>
</clipPath>
</defs>
</svg>
