<svg width="340" height="107" viewBox="0 0 340 107" fill="none" xmlns="http://www.w3.org/2000/svg">
<g clip-path="url(#clip0_1_514)">
<g clip-path="url(#clip1_1_514)">
<path d="M232.433 48.2139C232.433 42.8496 229.158 38.9609 222.881 38.9609H202.597V66.7585H209.267V57.2691H217.159L224.895 66.7585H232.41V66.1457L224.895 57.1098C229.584 56.1369 232.433 52.6714 232.433 48.2139ZM222.133 51.6518H209.267V44.7183H222.133C224.512 44.7183 226.042 45.9934 226.042 48.1947C226.042 50.396 224.566 51.6518 222.133 51.6518Z" fill="black"/>
<path d="M333.182 38.9609H326.947V49.5001H310.137V38.9609H303.388V66.7585H310.137V55.8126H326.947V66.7585H333.182V38.9609Z" fill="black"/>
<path d="M184.743 38.9609L177.326 62.3504H176.919L169.46 38.9609H157.582V66.7585H163.934V43.9241H164.331L171.748 66.7585H181.982L189.441 43.9241H189.835V66.7585H196.386V38.9609H184.743Z" fill="black"/>
<path d="M112.161 50.3353C109.804 50.088 105.409 49.684 103.052 49.4394C100.695 49.1948 99.3922 48.5078 99.3922 46.9661C99.3922 45.4244 100.815 44.2399 106.556 44.2399C111.622 44.2399 116.299 45.331 120.378 47.3124V41.0906C116.296 39.1338 111.814 38.1748 106.212 38.1748C98.3548 38.1748 92.914 41.4808 92.914 47.0705C92.914 51.8029 96.1067 54.3861 102.511 55.0896C104.83 55.3452 108.771 55.6942 111.521 55.9223C114.517 56.1724 115.407 57.093 115.407 58.4671C115.407 60.3523 113.307 61.5231 107.988 61.5231C102.667 61.5231 97.0897 59.7423 93.1899 57.2497V63.6501C96.3225 65.7579 101.747 67.547 107.788 67.547C116.372 67.547 121.881 64.2163 121.881 58.2527C121.881 53.765 118.942 51.0416 112.161 50.3326V50.3353Z" fill="black"/>
<path d="M126.248 38.9609V66.7585H152.017V61.078H132.6V55.4389H151.686V49.8024H132.6V44.6386H152.017V38.9609H126.248Z" fill="black"/>
<path d="M289.604 50.3353C287.246 50.088 282.852 49.684 280.495 49.4394C278.176 49.2004 276.835 48.5078 276.835 46.9661C276.835 45.4244 278.258 44.2399 283.999 44.2399C289.065 44.2399 293.742 45.331 297.822 47.3124V41.0906C293.739 39.1338 289.257 38.1748 283.655 38.1748C275.798 38.1748 270.357 41.4808 270.357 47.0705C270.357 51.8029 273.55 54.3861 279.954 55.0896C282.273 55.3452 286.215 55.6942 288.964 55.9223C291.96 56.1724 292.851 57.093 292.851 58.4671C292.851 60.3523 290.751 61.5231 285.43 61.5231C280.11 61.5231 274.533 59.7423 270.633 57.2497V63.6501C273.766 65.7579 279.19 67.547 285.231 67.547C293.815 67.547 299.324 64.2163 299.324 58.2527C299.324 53.765 296.385 51.0416 289.604 50.3326V50.3353Z" fill="black"/>
<path d="M259.148 38.9609V53.1909C259.148 58.5827 255.893 61.5425 250.999 61.5425C246.105 61.5425 242.849 58.6267 242.849 53.1084V38.9609H236.218V52.4763C236.218 62.5703 242.486 67.5527 251.094 67.5527C259.703 67.5527 265.775 62.7654 265.775 52.8061V38.9609H259.143H259.148Z" fill="black"/>
<path d="M70.0623 52.6975C70.0623 54.0524 69.3877 54.2613 67.6781 54.2613C65.8645 54.2613 65.5532 53.948 65.3456 52.5931C64.9824 49.1003 62.6499 46.1268 58.7144 45.8162C57.4717 45.7118 57.1604 45.2418 57.1604 43.6782C57.1604 42.2189 57.3679 41.5401 58.5068 41.5401C65.3456 41.5401 70.0623 47.0666 70.0623 52.6975ZM80.0119 52.6975C80.0119 42.2162 72.9628 31.1631 56.6933 31.1631H24.3482C23.6955 31.1631 23.2913 31.5066 23.2913 32.1057C23.2913 32.4328 23.5344 32.7267 23.7556 32.8999C24.9409 33.8371 26.667 34.8676 28.983 36.0327C31.228 37.1623 32.9623 37.896 34.7239 38.6161C35.4504 38.9129 35.7399 39.2371 35.7399 39.6714C35.7399 40.2374 35.3439 40.5975 34.5245 40.5975H8.85166C8.09239 40.5975 7.72642 41.0894 7.72642 41.5868C7.72642 42.01 7.8739 42.3481 8.23168 42.7218C10.3156 44.9093 13.6285 47.5476 18.4708 50.5952C22.715 53.2664 27.9589 56.1492 32.1183 58.1554C32.8176 58.4934 33.0606 58.8836 33.0442 59.2877C33.0252 59.7548 32.6591 60.1505 31.8507 60.1505H20.0849C19.4158 60.1505 19.0443 60.505 19.0443 61.0492C19.0443 61.3515 19.2874 61.7362 19.6042 62.0275C22.2808 64.4707 26.5605 67.1418 32.2631 69.585C39.8694 72.8442 47.6122 74.8037 56.3083 74.8037C72.7853 74.8037 80.0119 62.3958 80.0119 52.6975ZM58.5068 67.5568C50.4226 67.5568 43.6876 60.9337 43.6876 52.6975C43.6876 44.4613 50.4226 38.0472 58.5068 38.0472C66.591 38.0472 73.2742 44.5658 73.2742 52.6975C73.2742 60.8293 66.7958 67.5568 58.5068 67.5568Z" fill="#EE7326"/>
</g>
</g>
<defs>
<clipPath id="clip0_1_514">
<rect width="340" height="105.58" fill="white" transform="translate(0 0.509766)"/>
</clipPath>
<clipPath id="clip1_1_514">
<rect width="340" height="105.58" fill="white" transform="translate(0 0.509766)"/>
</clipPath>
</defs>
</svg>
